<svg width="800" height="800" viewBox="0 0 800 800" fill="none" xmlns="http://www.w3.org/2000/svg">
<path d="M374.67 243.393C359.709 308.673 308.718 359.663 243.434 374.622L0 400L243.367 425.277C308.718 440.27 359.709 491.26 374.67 556.574L400.015 800L425.327 556.574C440.287 491.26 491.312 440.27 556.63 425.277L800 400L556.596 374.622C491.279 359.663 440.287 308.673 425.327 243.393L400.015 0L374.67 243.393Z" fill="black"/>
<path d="M589.768 147.103C584.906 168.319 568.333 184.89 547.116 189.752L468 198L547.094 206.215C568.333 211.088 584.906 227.659 589.768 248.887L598.005 328L606.231 248.887C611.093 227.659 627.676 211.088 648.905 206.215L728 198L648.894 189.752C627.666 184.89 611.093 168.319 606.231 147.103L598.005 68L589.768 147.103Z" fill="black"/>
</svg>
