<svg width="800" height="800" viewBox="0 0 800 800" fill="none" xmlns="http://www.w3.org/2000/svg">
<mask id="mask0_54_6082" style="mask-type:luminance" maskUnits="userSpaceOnUse" x="0" y="0" width="800" height="800">
<path d="M400 800C620.914 800 800 620.914 800 400C800 179.086 620.914 0 400 0C179.086 0 0 179.086 0 400C0 620.914 179.086 800 400 800Z" fill="white"/>
</mask>
<g mask="url(#mask0_54_6082)">
<path d="M1060.48 32.8664L50.0781 71.6644V-5.93164L1060.48 32.8664Z" fill="black"/>
<path d="M1027.97 99.5343L17.5703 138.332V60.7363L1027.97 99.5343Z" fill="black"/>
<path d="M1002.67 166.2L-7.72656 204.998V127.402L1002.67 166.2Z" fill="black"/>
<path d="M983.877 232.868L-26.5234 271.666V194.07L983.877 232.868Z" fill="black"/>
<path d="M971.127 299.534L-39.2734 338.332V260.736L971.127 299.534Z" fill="black"/>
<path d="M964.134 366.202L-46.2656 405V327.404L964.134 366.202Z" fill="black"/>
<path d="M962.743 432.868L-47.6562 471.666V394.07L962.743 432.868Z" fill="black"/>
<path d="M966.927 499.536L-43.4727 538.334V460.738L966.927 499.536Z" fill="black"/>
<path d="M976.767 566.204L-33.6328 605.002V527.406L976.767 566.204Z" fill="black"/>
<path d="M992.497 632.87L-17.9023 671.668V594.072L992.497 632.87Z" fill="black"/>
<path d="M1014.47 699.538L4.07422 738.336V660.74L1014.47 699.538Z" fill="black"/>
<path d="M1043.27 766.204L32.8672 805.002V727.406L1043.27 766.204Z" fill="black"/>
</g>
</svg>
