<svg width="800" height="800" viewBox="0 0 800 800" fill="none" xmlns="http://www.w3.org/2000/svg">
<mask id="mask0_50_5894" style="mask-type:luminance" maskUnits="userSpaceOnUse" x="0" y="0" width="800" height="800">
<path d="M400 800C620.914 800 800 620.914 800 400C800 179.086 620.914 0 400 0C179.086 0 0 179.086 0 400C0 620.914 179.086 800 400 800Z" fill="white"/>
</mask>
<g mask="url(#mask0_50_5894)">
<path d="M1069.58 16.1998L59.1836 35.5988V-3.19922L1069.58 16.1998Z" fill="white"/>
<path d="M1051.38 49.5279L40.9766 68.9269V30.1289L1051.38 49.5279Z" fill="white"/>
<path d="M1035.15 82.8716L24.7539 102.271V63.4727L1035.15 82.8716Z" fill="white"/>
<path d="M1020.78 116.2L10.3828 135.599V96.8008L1020.78 116.2Z" fill="white"/>
<path d="M1008.16 149.528L-2.23828 168.927V130.129L1008.16 149.528Z" fill="white"/>
<path d="M997.185 182.872L-13.2148 202.271V163.473L997.185 182.872Z" fill="white"/>
<path d="M987.806 216.2L-22.5938 235.599V196.801L987.806 216.2Z" fill="white"/>
<path d="M979.951 249.528L-30.4492 268.927V230.129L979.951 249.528Z" fill="white"/>
<path d="M973.584 282.872L-36.8164 302.271V263.473L973.584 282.872Z" fill="white"/>
<path d="M968.673 316.2L-41.7266 335.599V296.801L968.673 316.2Z" fill="white"/>
<path d="M965.185 349.528L-45.2148 368.927V330.129L965.185 349.528Z" fill="white"/>
<path d="M963.087 382.872L-47.3125 402.271V363.473L963.087 382.872Z" fill="white"/>
<path d="M962.4 416.2L-48 435.599V396.801L962.4 416.2Z" fill="white"/>
<path d="M963.087 449.528L-47.3125 468.927V430.129L963.087 449.528Z" fill="white"/>
<path d="M965.185 482.872L-45.2148 502.271V463.473L965.185 482.872Z" fill="white"/>
<path d="M968.673 516.2L-41.7266 535.599V496.801L968.673 516.2Z" fill="white"/>
<path d="M973.584 549.528L-36.8164 568.927V530.129L973.584 549.528Z" fill="white"/>
<path d="M979.951 582.872L-30.4492 602.271V563.473L979.951 582.872Z" fill="white"/>
<path d="M987.806 616.2L-22.5938 635.599V596.801L987.806 616.2Z" fill="white"/>
<path d="M997.185 649.528L-13.2148 668.927V630.129L997.185 649.528Z" fill="white"/>
<path d="M1008.16 682.872L-2.23828 702.271V663.473L1008.16 682.872Z" fill="white"/>
<path d="M1020.78 716.2L10.3828 735.599V696.801L1020.78 716.2Z" fill="white"/>
<path d="M1035.15 749.528L24.7539 768.927V730.129L1035.15 749.528Z" fill="white"/>
<path d="M1051.38 782.872L40.9766 802.271V763.473L1051.38 782.872Z" fill="white"/>
</g>
</svg>
