<svg width="800" height="800" viewBox="0 0 800 800" fill="none" xmlns="http://www.w3.org/2000/svg">
<mask id="mask0_54_6231" style="mask-type:luminance" maskUnits="userSpaceOnUse" x="0" y="0" width="800" height="800">
<path d="M400 800C620.914 800 800 620.914 800 400C800 179.086 620.914 0 400 0C179.086 0 0 179.086 0 400C0 620.914 179.086 800 400 800Z" fill="white"/>
</mask>
<g mask="url(#mask0_54_6231)">
<path d="M0.00125599 6.5279C3.6069 6.5279 6.52986 3.60495 6.52986 -0.000697136C6.52986 -3.60634 3.6069 -6.5293 0.00125599 -6.5293C-3.60439 -6.5293 -6.52734 -3.60634 -6.52734 -0.000697136C-6.52734 3.60495 -3.60439 6.5279 0.00125599 6.5279Z" fill="white"/>
<path d="M69.5719 8.22379C74.114 8.22379 77.7961 4.54169 77.7961 -0.000409126C77.7961 -4.54251 74.114 -8.22461 69.5719 -8.22461C65.0298 -8.22461 61.3477 -4.54251 61.3477 -0.000409126C61.3477 4.54169 65.0298 8.22379 69.5719 8.22379Z" fill="white"/>
<path d="M139.147 9.92008C144.625 9.92008 149.067 5.47874 149.067 7.82013e-05C149.067 -5.47859 144.625 -9.91992 139.147 -9.91992C133.668 -9.91992 129.227 -5.47859 129.227 7.82013e-05C129.227 5.47874 133.668 9.92008 139.147 9.92008Z" fill="white"/>
<path d="M208.724 11.6332C215.149 11.6332 220.358 6.42451 220.358 -0.000764847C220.358 -6.42605 215.149 -11.6348 208.724 -11.6348C202.299 -11.6348 197.09 -6.42605 197.09 -0.000764847C197.09 6.42451 202.299 11.6332 208.724 11.6332Z" fill="white"/>
<path d="M278.295 13.3299C285.657 13.3299 291.625 7.36188 291.625 -7.72476e-05C291.625 -7.36203 285.657 -13.3301 278.295 -13.3301C270.933 -13.3301 264.965 -7.36203 264.965 -7.72476e-05C264.965 7.36188 270.933 13.3299 278.295 13.3299Z" fill="white"/>
<path d="M347.866 15.0266C356.164 15.0266 362.892 8.29924 362.892 0.000609398C362.892 -8.29802 356.164 -15.0254 347.866 -15.0254C339.567 -15.0254 332.84 -8.29802 332.84 0.000609398C332.84 8.29924 339.567 15.0266 347.866 15.0266Z" fill="white"/>
<path d="M417.345 16.7193C426.579 16.7193 434.065 9.2335 434.065 -0.000703812C434.065 -9.23491 426.579 -16.7207 417.345 -16.7207C408.111 -16.7207 400.625 -9.23491 400.625 -0.000703812C400.625 9.2335 408.111 16.7193 417.345 16.7193Z" fill="white"/>
<path d="M486.92 18.416C497.091 18.416 505.336 10.1709 505.336 -1.52588e-05C505.336 -10.1709 497.091 -18.416 486.92 -18.416C476.749 -18.416 468.504 -10.1709 468.504 -1.52588e-05C468.504 10.1709 476.749 18.416 486.92 18.416Z" fill="white"/>
<path d="M556.493 20.1147C567.602 20.1147 576.607 11.1094 576.607 0.00071907C576.607 -11.1079 567.602 -20.1133 556.493 -20.1133C545.384 -20.1133 536.379 -11.1079 536.379 0.00071907C536.379 11.1094 545.384 20.1147 556.493 20.1147Z" fill="white"/>
<path d="M626.064 21.8258C638.118 21.8258 647.89 12.054 647.89 -0.000171661C647.89 -12.0543 638.118 -21.8262 626.064 -21.8262C614.01 -21.8262 604.238 -12.0543 604.238 -0.000171661C604.238 12.054 614.01 21.8258 626.064 21.8258Z" fill="white"/>
<path d="M695.639 23.5225C708.63 23.5225 719.161 12.9914 719.161 0.000516891C719.161 -12.9903 708.63 -23.5215 695.639 -23.5215C682.648 -23.5215 672.117 -12.9903 672.117 0.000516891C672.117 12.9914 682.648 23.5225 695.639 23.5225Z" fill="white"/>
<path d="M765.214 25.2192C779.142 25.2192 790.432 13.9287 790.432 0.00120354C790.432 -13.9263 779.142 -25.2168 765.214 -25.2168C751.287 -25.2168 739.996 -13.9263 739.996 0.00120354C739.996 13.9287 751.287 25.2192 765.214 25.2192Z" fill="white"/>
<path d="M-0.00246334 77.7978C4.53958 77.7978 8.22164 74.1158 8.22164 69.5737C8.22164 65.0317 4.53958 61.3496 -0.00246334 61.3496C-4.54451 61.3496 -8.22656 65.0317 -8.22656 69.5737C-8.22656 74.1158 -4.54451 77.7978 -0.00246334 77.7978Z" fill="white"/>
<path d="M69.5719 79.4935C75.0504 79.4935 79.4915 75.0523 79.4915 69.5739C79.4915 64.0955 75.0504 59.6543 69.5719 59.6543C64.0935 59.6543 59.6523 64.0955 59.6523 69.5739C59.6523 75.0523 64.0935 79.4935 69.5719 79.4935Z" fill="white"/>
<path d="M139.148 81.2095C145.574 81.2095 150.784 75.9999 150.784 69.5735C150.784 63.1471 145.574 57.9375 139.148 57.9375C132.721 57.9375 127.512 63.1471 127.512 69.5735C127.512 75.9999 132.721 81.2095 139.148 81.2095Z" fill="white"/>
<path d="M208.725 82.9041C216.086 82.9041 222.055 76.9361 222.055 69.5741C222.055 62.2122 216.086 56.2441 208.725 56.2441C201.363 56.2441 195.395 62.2122 195.395 69.5741C195.395 76.9361 201.363 82.9041 208.725 82.9041Z" fill="white"/>
<path d="M278.292 84.6008C286.59 84.6008 293.318 77.8735 293.318 69.5748C293.318 61.2762 286.59 54.5488 278.292 54.5488C269.993 54.5488 263.266 61.2762 263.266 69.5748C263.266 77.8735 269.993 84.6008 278.292 84.6008Z" fill="white"/>
<path d="M347.867 86.2936C357.102 86.2936 364.589 78.8069 364.589 69.5716C364.589 60.3363 357.102 52.8496 347.867 52.8496C338.631 52.8496 331.145 60.3363 331.145 69.5716C331.145 78.8069 338.631 86.2936 347.867 86.2936Z" fill="white"/>
<path d="M417.346 87.9882C427.517 87.9882 435.762 79.7431 435.762 69.5722C435.762 59.4014 427.517 51.1562 417.346 51.1562C407.175 51.1562 398.93 59.4014 398.93 69.5722C398.93 79.7431 407.175 87.9882 417.346 87.9882Z" fill="white"/>
<path d="M486.917 89.6849C498.024 89.6849 507.029 80.6805 507.029 69.5729C507.029 58.4654 498.024 49.4609 486.917 49.4609C475.809 49.4609 466.805 58.4654 466.805 69.5729C466.805 80.6805 475.809 89.6849 486.917 89.6849Z" fill="white"/>
<path d="M556.49 91.4C568.544 91.4 578.316 81.6282 578.316 69.574C578.316 57.5199 568.544 47.748 556.49 47.748C544.436 47.748 534.664 57.5199 534.664 69.574C534.664 81.6282 544.436 91.4 556.49 91.4Z" fill="white"/>
<path d="M626.065 93.0948C639.056 93.0948 649.587 82.5636 649.587 69.5728C649.587 56.5819 639.056 46.0508 626.065 46.0508C613.074 46.0508 602.543 56.5819 602.543 69.5728C602.543 82.5636 613.074 93.0948 626.065 93.0948Z" fill="white"/>
<path d="M695.64 94.7915C709.567 94.7915 720.858 83.501 720.858 69.5735C720.858 55.646 709.567 44.3555 695.64 44.3555C681.712 44.3555 670.422 55.646 670.422 69.5735C670.422 83.501 681.712 94.7915 695.64 94.7915Z" fill="white"/>
<path d="M765.213 96.4861C780.076 96.4861 792.125 84.4372 792.125 69.5741C792.125 54.711 780.076 42.6621 765.213 42.6621C750.35 42.6621 738.301 54.711 738.301 69.5741C738.301 84.4372 750.35 96.4861 765.213 96.4861Z" fill="white"/>
<path d="M-0.00227547 149.066C5.47617 149.066 9.91732 144.625 9.91732 139.146C9.91732 133.668 5.47617 129.227 -0.00227547 129.227C-5.48072 129.227 -9.92188 133.668 -9.92188 139.146C-9.92188 144.625 -5.48072 149.066 -0.00227547 149.066Z" fill="white"/>
<path d="M69.576 150.781C76.0016 150.781 81.2106 145.572 81.2106 139.146C81.2106 132.721 76.0016 127.512 69.576 127.512C63.1504 127.512 57.9414 132.721 57.9414 139.146C57.9414 145.572 63.1504 150.781 69.576 150.781Z" fill="white"/>
<path d="M139.146 152.476C146.508 152.476 152.476 146.508 152.476 139.146C152.476 131.784 146.508 125.816 139.146 125.816C131.784 125.816 125.816 131.784 125.816 139.146C125.816 146.508 131.784 152.476 139.146 152.476Z" fill="white"/>
<path d="M208.717 154.173C217.016 154.173 223.743 147.446 223.743 139.147C223.743 130.848 217.016 124.121 208.717 124.121C200.419 124.121 193.691 130.848 193.691 139.147C193.691 147.446 200.419 154.173 208.717 154.173Z" fill="white"/>
<path d="M278.292 155.87C287.528 155.87 295.014 148.383 295.014 139.148C295.014 129.912 287.528 122.426 278.292 122.426C269.057 122.426 261.57 129.912 261.57 139.148C261.57 148.383 269.057 155.87 278.292 155.87Z" fill="white"/>
<path d="M347.867 157.565C358.039 157.565 366.285 149.318 366.285 139.147C366.285 128.975 358.039 120.729 347.867 120.729C337.695 120.729 329.449 128.975 329.449 139.147C329.449 149.318 337.695 157.565 347.867 157.565Z" fill="white"/>
<path d="M417.342 159.259C428.45 159.259 437.454 150.255 437.454 139.147C437.454 128.04 428.45 119.035 417.342 119.035C406.235 119.035 397.23 128.04 397.23 139.147C397.23 150.255 406.235 159.259 417.342 159.259Z" fill="white"/>
<path d="M486.918 160.974C498.973 160.974 508.746 151.202 508.746 139.146C508.746 127.091 498.973 117.318 486.918 117.318C474.863 117.318 465.09 127.091 465.09 139.146C465.09 151.202 474.863 160.974 486.918 160.974Z" fill="white"/>
<path d="M556.491 162.669C569.482 162.669 580.013 152.138 580.013 139.147C580.013 126.156 569.482 115.625 556.491 115.625C543.5 115.625 532.969 126.156 532.969 139.147C532.969 152.138 543.5 162.669 556.491 162.669Z" fill="white"/>
<path d="M626.066 164.366C639.993 164.366 651.284 153.075 651.284 139.148C651.284 125.22 639.993 113.93 626.066 113.93C612.138 113.93 600.848 125.22 600.848 139.148C600.848 153.075 612.138 164.366 626.066 164.366Z" fill="white"/>
<path d="M695.641 166.06C710.505 166.06 722.555 154.011 722.555 139.146C722.555 124.282 710.505 112.232 695.641 112.232C680.776 112.232 668.727 124.282 668.727 139.146C668.727 154.011 680.776 166.06 695.641 166.06Z" fill="white"/>
<path d="M765.214 167.755C781.013 167.755 793.821 154.947 793.821 139.147C793.821 123.347 781.013 110.539 765.214 110.539C749.414 110.539 736.605 123.347 736.605 139.147C736.605 154.947 749.414 167.755 765.214 167.755Z" fill="white"/>
<path d="M0.00178814 220.355C6.4274 220.355 11.6364 215.146 11.6364 208.721C11.6364 202.295 6.4274 197.086 0.00178814 197.086C-6.42382 197.086 -11.6328 202.295 -11.6328 208.721C-11.6328 215.146 -6.42382 220.355 0.00178814 220.355Z" fill="white"/>
<path d="M69.5761 222.051C76.938 222.051 82.9061 216.083 82.9061 208.721C82.9061 201.359 76.938 195.391 69.5761 195.391C62.2141 195.391 56.2461 201.359 56.2461 208.721C56.2461 216.083 62.2141 222.051 69.5761 222.051Z" fill="white"/>
<path d="M139.149 223.745C147.447 223.745 154.173 217.019 154.173 208.721C154.173 200.424 147.447 193.697 139.149 193.697C130.851 193.697 124.125 200.424 124.125 208.721C124.125 217.019 130.851 223.745 139.149 223.745Z" fill="white"/>
<path d="M208.72 225.442C217.954 225.442 225.44 217.956 225.44 208.722C225.44 199.488 217.954 192.002 208.72 192.002C199.486 192.002 192 199.488 192 208.722C192 217.956 199.486 225.442 208.72 225.442Z" fill="white"/>
<path d="M278.295 227.137C288.466 227.137 296.711 218.892 296.711 208.721C296.711 198.55 288.466 190.305 278.295 190.305C268.124 190.305 259.879 198.55 259.879 208.721C259.879 218.892 268.124 227.137 278.295 227.137Z" fill="white"/>
<path d="M347.87 228.833C358.977 228.833 367.982 219.829 367.982 208.721C367.982 197.614 358.977 188.609 347.87 188.609C336.762 188.609 327.758 197.614 327.758 208.721C327.758 219.829 336.762 228.833 347.87 228.833Z" fill="white"/>
<path d="M417.348 230.549C429.403 230.549 439.176 220.776 439.176 208.721C439.176 196.665 429.403 186.893 417.348 186.893C405.292 186.893 395.52 196.665 395.52 208.721C395.52 220.776 405.292 230.549 417.348 230.549Z" fill="white"/>
<path d="M486.917 232.243C499.907 232.243 510.439 221.712 510.439 208.721C510.439 195.73 499.907 185.199 486.917 185.199C473.926 185.199 463.395 195.73 463.395 208.721C463.395 221.712 473.926 232.243 486.917 232.243Z" fill="white"/>
<path d="M556.491 233.94C570.419 233.94 581.709 222.649 581.709 208.722C581.709 194.794 570.419 183.504 556.491 183.504C542.564 183.504 531.273 194.794 531.273 208.722C531.273 222.649 542.564 233.94 556.491 233.94Z" fill="white"/>
<path d="M626.066 235.635C640.931 235.635 652.98 223.585 652.98 208.721C652.98 193.856 640.931 181.807 626.066 181.807C611.202 181.807 599.152 193.856 599.152 208.721C599.152 223.585 611.202 235.635 626.066 235.635Z" fill="white"/>
<path d="M695.641 237.331C711.442 237.331 724.251 224.522 724.251 208.721C724.251 192.92 711.442 180.111 695.641 180.111C679.84 180.111 667.031 192.92 667.031 208.721C667.031 224.522 679.84 237.331 695.641 237.331Z" fill="white"/>
<path d="M765.214 239.026C781.951 239.026 795.518 225.458 795.518 208.722C795.518 191.986 781.951 178.418 765.214 178.418C748.478 178.418 734.91 191.986 734.91 208.722C734.91 225.458 748.478 239.026 765.214 239.026Z" fill="white"/>
<path d="M0.00197506 291.625C7.36399 291.625 13.3321 285.657 13.3321 278.295C13.3321 270.933 7.36399 264.965 0.00197506 264.965C-7.36004 264.965 -13.3281 270.933 -13.3281 278.295C-13.3281 285.657 -7.36004 291.625 0.00197506 291.625Z" fill="white"/>
<path d="M69.5725 293.321C77.8709 293.321 84.5981 286.594 84.5981 278.295C84.5981 269.997 77.8709 263.27 69.5725 263.27C61.2741 263.27 54.5469 269.997 54.5469 278.295C54.5469 286.594 61.2741 293.321 69.5725 293.321Z" fill="white"/>
<path d="M139.15 295.014C148.384 295.014 155.87 287.528 155.87 278.294C155.87 269.06 148.384 261.574 139.15 261.574C129.915 261.574 122.43 269.06 122.43 278.294C122.43 287.528 129.915 295.014 139.15 295.014Z" fill="white"/>
<path d="M208.721 296.711C218.892 296.711 227.137 288.466 227.137 278.295C227.137 268.124 218.892 259.879 208.721 259.879C198.55 259.879 190.305 268.124 190.305 278.295C190.305 288.466 198.55 296.711 208.721 296.711Z" fill="white"/>
<path d="M278.292 298.408C289.399 298.408 298.404 289.403 298.404 278.296C298.404 267.188 289.399 258.184 278.292 258.184C267.184 258.184 258.18 267.188 258.18 278.296C258.18 289.403 267.184 298.408 278.292 298.408Z" fill="white"/>
<path d="M347.869 300.121C359.923 300.121 369.695 290.349 369.695 278.295C369.695 266.241 359.923 256.469 347.869 256.469C335.815 256.469 326.043 266.241 326.043 278.295C326.043 290.349 335.815 300.121 347.869 300.121Z" fill="white"/>
<path d="M417.346 301.815C430.337 301.815 440.868 291.284 440.868 278.293C440.868 265.303 430.337 254.771 417.346 254.771C404.355 254.771 393.824 265.303 393.824 278.293C393.824 291.284 404.355 301.815 417.346 301.815Z" fill="white"/>
<path d="M486.917 303.512C500.845 303.512 512.135 292.222 512.135 278.294C512.135 264.367 500.845 253.076 486.917 253.076C472.99 253.076 461.699 264.367 461.699 278.294C461.699 292.222 472.99 303.512 486.917 303.512Z" fill="white"/>
<path d="M556.492 305.209C571.356 305.209 583.406 293.159 583.406 278.295C583.406 263.431 571.356 251.381 556.492 251.381C541.628 251.381 529.578 263.431 529.578 278.295C529.578 293.159 541.628 305.209 556.492 305.209Z" fill="white"/>
<path d="M626.067 306.904C641.868 306.904 654.677 294.094 654.677 278.294C654.677 262.493 641.868 249.684 626.067 249.684C610.266 249.684 597.457 262.493 597.457 278.294C597.457 294.094 610.266 306.904 626.067 306.904Z" fill="white"/>
<path d="M695.64 308.598C712.376 308.598 725.944 295.031 725.944 278.294C725.944 261.558 712.376 247.99 695.64 247.99C678.904 247.99 665.336 261.558 665.336 278.294C665.336 295.031 678.904 308.598 695.64 308.598Z" fill="white"/>
<path d="M765.211 310.313C782.896 310.313 797.231 295.978 797.231 278.293C797.231 260.609 782.896 246.273 765.211 246.273C747.527 246.273 733.191 260.609 733.191 278.293C733.191 295.978 747.527 310.313 765.211 310.313Z" fill="white"/>
<path d="M0.00216293 362.893C8.30057 362.893 15.0278 356.166 15.0278 347.867C15.0278 339.569 8.30057 332.842 0.00216293 332.842C-8.29625 332.842 -15.0234 339.569 -15.0234 347.867C-15.0234 356.166 -8.29625 362.893 0.00216293 362.893Z" fill="white"/>
<path d="M69.5726 364.588C78.8073 364.588 86.2936 357.102 86.2936 347.867C86.2936 338.633 78.8073 331.146 69.5726 331.146C60.3378 331.146 52.8516 338.633 52.8516 347.867C52.8516 357.102 60.3378 364.588 69.5726 364.588Z" fill="white"/>
<path d="M139.15 366.283C149.321 366.283 157.566 358.038 157.566 347.867C157.566 337.696 149.321 329.451 139.15 329.451C128.979 329.451 120.734 337.696 120.734 347.867C120.734 358.038 128.979 366.283 139.15 366.283Z" fill="white"/>
<path d="M208.717 367.98C219.825 367.98 228.829 358.975 228.829 347.868C228.829 336.76 219.825 327.756 208.717 327.756C197.61 327.756 188.605 336.76 188.605 347.868C188.605 358.975 197.61 367.98 208.717 367.98Z" fill="white"/>
<path d="M278.297 369.697C290.352 369.697 300.125 359.924 300.125 347.869C300.125 335.814 290.352 326.041 278.297 326.041C266.241 326.041 256.469 335.814 256.469 347.869C256.469 359.924 266.241 369.697 278.297 369.697Z" fill="white"/>
<path d="M347.87 371.39C360.861 371.39 371.392 360.859 371.392 347.868C371.392 334.877 360.861 324.346 347.87 324.346C334.879 324.346 324.348 334.877 324.348 347.868C324.348 360.859 334.879 371.39 347.87 371.39Z" fill="white"/>
<path d="M417.343 373.086C431.271 373.086 442.561 361.796 442.561 347.868C442.561 333.941 431.271 322.65 417.343 322.65C403.415 322.65 392.125 333.941 392.125 347.868C392.125 361.796 403.415 373.086 417.343 373.086Z" fill="white"/>
<path d="M486.916 374.781C501.779 374.781 513.828 362.732 513.828 347.869C513.828 333.006 501.779 320.957 486.916 320.957C472.053 320.957 460.004 333.006 460.004 347.869C460.004 362.732 472.053 374.781 486.916 374.781Z" fill="white"/>
<path d="M556.493 376.478C572.294 376.478 585.103 363.669 585.103 347.868C585.103 332.067 572.294 319.258 556.493 319.258C540.692 319.258 527.883 332.067 527.883 347.868C527.883 363.669 540.692 376.478 556.493 376.478Z" fill="white"/>
<path d="M626.064 378.174C642.801 378.174 656.37 364.606 656.37 347.868C656.37 331.131 642.801 317.562 626.064 317.562C609.326 317.562 595.758 331.131 595.758 347.868C595.758 364.606 609.326 378.174 626.064 378.174Z" fill="white"/>
<path d="M695.639 379.886C713.322 379.886 727.657 365.551 727.657 347.868C727.657 330.185 713.322 315.85 695.639 315.85C677.956 315.85 663.621 330.185 663.621 347.868C663.621 365.551 677.956 379.886 695.639 379.886Z" fill="white"/>
<path d="M765.214 381.582C783.834 381.582 798.928 366.488 798.928 347.868C798.928 329.249 783.834 314.154 765.214 314.154C746.594 314.154 731.5 329.249 731.5 347.868C731.5 366.488 746.594 381.582 765.214 381.582Z" fill="white"/>
<path d="M-0.0015564 434.065C9.23325 434.065 16.7195 426.579 16.7195 417.344C16.7195 408.109 9.23325 400.623 -0.0015564 400.623C-9.23637 400.623 -16.7227 408.109 -16.7227 417.344C-16.7227 426.579 -9.23637 434.065 -0.0015564 434.065Z" fill="white"/>
<path d="M69.5768 435.761C79.748 435.761 87.9934 427.516 87.9934 417.344C87.9934 407.173 79.748 398.928 69.5768 398.928C59.4055 398.928 51.1602 407.173 51.1602 417.344C51.1602 427.516 59.4055 435.761 69.5768 435.761Z" fill="white"/>
<path d="M139.151 437.456C150.259 437.456 159.263 428.452 159.263 417.344C159.263 406.237 150.259 397.232 139.151 397.232C128.044 397.232 119.039 406.237 119.039 417.344C119.039 428.452 128.044 437.456 139.151 437.456Z" fill="white"/>
<path d="M208.723 439.172C220.778 439.172 230.551 429.399 230.551 417.344C230.551 405.288 220.778 395.516 208.723 395.516C196.667 395.516 186.895 405.288 186.895 417.344C186.895 429.399 196.667 439.172 208.723 439.172Z" fill="white"/>
<path d="M278.294 440.868C291.285 440.868 301.818 430.336 301.818 417.344C301.818 404.352 291.285 393.82 278.294 393.82C265.302 393.82 254.77 404.352 254.77 417.344C254.77 430.336 265.302 440.868 278.294 440.868Z" fill="white"/>
<path d="M347.87 442.563C361.798 442.563 373.088 431.272 373.088 417.345C373.088 403.417 361.798 392.127 347.87 392.127C333.943 392.127 322.652 403.417 322.652 417.345C322.652 431.272 333.943 442.563 347.87 442.563Z" fill="white"/>
<path d="M417.344 444.258C432.208 444.258 444.258 432.208 444.258 417.344C444.258 402.479 432.208 390.43 417.344 390.43C402.479 390.43 390.43 402.479 390.43 417.344C390.43 432.208 402.479 444.258 417.344 444.258Z" fill="white"/>
<path d="M486.917 445.952C502.716 445.952 515.525 433.144 515.525 417.344C515.525 401.545 502.716 388.736 486.917 388.736C471.117 388.736 458.309 401.545 458.309 417.344C458.309 433.144 471.117 445.952 486.917 445.952Z" fill="white"/>
<path d="M556.492 447.649C573.228 447.649 586.796 434.081 586.796 417.345C586.796 400.609 573.228 387.041 556.492 387.041C539.755 387.041 526.188 400.609 526.188 417.345C526.188 434.081 539.755 447.649 556.492 447.649Z" fill="white"/>
<path d="M626.067 449.364C643.751 449.364 658.087 435.028 658.087 417.344C658.087 399.66 643.751 385.324 626.067 385.324C608.383 385.324 594.047 399.66 594.047 417.344C594.047 435.028 608.383 449.364 626.067 449.364Z" fill="white"/>
<path d="M695.64 451.059C714.259 451.059 729.354 435.965 729.354 417.345C729.354 398.725 714.259 383.631 695.64 383.631C677.02 383.631 661.926 398.725 661.926 417.345C661.926 435.965 677.02 451.059 695.64 451.059Z" fill="white"/>
<path d="M765.213 452.133C784.425 452.133 800 436.558 800 417.346C800 398.133 784.425 382.559 765.213 382.559C746 382.559 730.426 398.133 730.426 417.346C730.426 436.558 746 452.133 765.213 452.133Z" fill="white"/>
<path d="M-0.00136948 505.335C10.1698 505.335 18.4152 497.09 18.4152 486.919C18.4152 476.747 10.1698 468.502 -0.00136948 468.502C-10.1726 468.502 -18.418 476.747 -18.418 486.919C-18.418 497.09 -10.1726 505.335 -0.00136948 505.335Z" fill="white"/>
<path d="M69.5768 507.031C80.6844 507.031 89.6888 498.026 89.6888 486.919C89.6888 475.811 80.6844 466.807 69.5768 466.807C58.4693 466.807 49.4648 475.811 49.4648 486.919C49.4648 498.026 58.4693 507.031 69.5768 507.031Z" fill="white"/>
<path d="M139.146 508.744C151.2 508.744 160.972 498.972 160.972 486.918C160.972 474.864 151.2 465.092 139.146 465.092C127.092 465.092 117.32 474.864 117.32 486.918C117.32 498.972 127.092 508.744 139.146 508.744Z" fill="white"/>
<path d="M208.721 510.44C221.712 510.44 232.243 499.909 232.243 486.918C232.243 473.928 221.712 463.396 208.721 463.396C195.73 463.396 185.199 473.928 185.199 486.918C185.199 499.909 195.73 510.44 208.721 510.44Z" fill="white"/>
<path d="M278.296 512.137C292.224 512.137 303.514 500.847 303.514 486.919C303.514 472.992 292.224 461.701 278.296 461.701C264.369 461.701 253.078 472.992 253.078 486.919C253.078 500.847 264.369 512.137 278.296 512.137Z" fill="white"/>
<path d="M347.871 513.834C362.735 513.834 374.785 501.784 374.785 486.92C374.785 472.056 362.735 460.006 347.871 460.006C333.007 460.006 320.957 472.056 320.957 486.92C320.957 501.784 333.007 513.834 347.871 513.834Z" fill="white"/>
<path d="M417.342 515.527C433.142 515.527 445.95 502.718 445.95 486.919C445.95 471.119 433.142 458.311 417.342 458.311C401.543 458.311 388.734 471.119 388.734 486.919C388.734 502.718 401.543 515.527 417.342 515.527Z" fill="white"/>
<path d="M486.917 517.223C503.654 517.223 517.221 503.656 517.221 486.919C517.221 470.183 503.654 456.615 486.917 456.615C470.181 456.615 456.613 470.183 456.613 486.919C456.613 503.656 470.181 517.223 486.917 517.223Z" fill="white"/>
<path d="M556.493 518.938C574.177 518.938 588.513 504.603 588.513 486.918C588.513 469.234 574.177 454.898 556.493 454.898C538.809 454.898 524.473 469.234 524.473 486.918C524.473 504.603 538.809 518.938 556.493 518.938Z" fill="white"/>
<path d="M626.068 520.635C644.688 520.635 659.784 505.54 659.784 486.919C659.784 468.298 644.688 453.203 626.068 453.203C607.447 453.203 592.352 468.298 592.352 486.919C592.352 505.54 607.447 520.635 626.068 520.635Z" fill="white"/>
<path d="M695.639 521.705C714.851 521.705 730.426 506.13 730.426 486.918C730.426 467.706 714.851 452.131 695.639 452.131C676.426 452.131 660.852 467.706 660.852 486.918C660.852 506.13 676.426 521.705 695.639 521.705Z" fill="white"/>
<path d="M765.213 521.705C784.425 521.705 800 506.13 800 486.918C800 467.706 784.425 452.131 765.213 452.131C746 452.131 730.426 467.706 730.426 486.918C730.426 506.13 746 521.705 765.213 521.705Z" fill="white"/>
<path d="M-0.00118256 576.605C11.1064 576.605 20.1109 567.601 20.1109 556.493C20.1109 545.385 11.1064 536.381 -0.00118256 536.381C-11.1088 536.381 -20.1133 545.385 -20.1133 556.493C-20.1133 567.601 -11.1088 576.605 -0.00118256 576.605Z" fill="white"/>
<path d="M69.5731 578.32C81.6278 578.32 91.4001 568.548 91.4001 556.493C91.4001 544.438 81.6278 534.666 69.5731 534.666C57.5184 534.666 47.7461 544.438 47.7461 556.493C47.7461 568.548 57.5184 578.32 69.5731 578.32Z" fill="white"/>
<path d="M139.147 580.015C152.138 580.015 162.669 569.484 162.669 556.493C162.669 543.502 152.138 532.971 139.147 532.971C126.156 532.971 115.625 543.502 115.625 556.493C115.625 569.484 126.156 580.015 139.147 580.015Z" fill="white"/>
<path d="M208.722 581.709C222.649 581.709 233.94 570.419 233.94 556.491C233.94 542.564 222.649 531.273 208.722 531.273C194.794 531.273 183.504 542.564 183.504 556.491C183.504 570.419 194.794 581.709 208.722 581.709Z" fill="white"/>
<path d="M278.295 583.404C293.158 583.404 305.207 571.355 305.207 556.492C305.207 541.629 293.158 529.58 278.295 529.58C263.432 529.58 251.383 541.629 251.383 556.492C251.383 571.355 263.432 583.404 278.295 583.404Z" fill="white"/>
<path d="M347.87 585.099C363.669 585.099 376.478 572.291 376.478 556.491C376.478 540.691 363.669 527.883 347.87 527.883C332.07 527.883 319.262 540.691 319.262 556.491C319.262 572.291 332.07 585.099 347.87 585.099Z" fill="white"/>
<path d="M417.343 586.796C434.079 586.796 447.647 573.228 447.647 556.492C447.647 539.755 434.079 526.188 417.343 526.188C400.607 526.188 387.039 539.755 387.039 556.492C387.039 573.228 400.607 586.796 417.343 586.796Z" fill="white"/>
<path d="M486.918 588.511C504.603 588.511 518.938 574.175 518.938 556.491C518.938 538.807 504.603 524.471 486.918 524.471C469.234 524.471 454.898 538.807 454.898 556.491C454.898 574.175 469.234 588.511 486.918 588.511Z" fill="white"/>
<path d="M556.493 590.207C575.114 590.207 590.209 575.112 590.209 556.491C590.209 537.871 575.114 522.775 556.493 522.775C537.873 522.775 522.777 537.871 522.777 556.491C522.777 575.112 537.873 590.207 556.493 590.207Z" fill="white"/>
<path d="M626.064 591.279C645.277 591.279 660.851 575.704 660.851 556.492C660.851 537.28 645.277 521.705 626.064 521.705C606.852 521.705 591.277 537.28 591.277 556.492C591.277 575.704 606.852 591.279 626.064 591.279Z" fill="white"/>
<path d="M695.639 591.279C714.851 591.279 730.426 575.704 730.426 556.492C730.426 537.28 714.851 521.705 695.639 521.705C676.426 521.705 660.852 537.28 660.852 556.492C660.852 575.704 676.426 591.279 695.639 591.279Z" fill="white"/>
<path d="M765.213 591.279C784.425 591.279 800 575.704 800 556.492C800 537.28 784.425 521.705 765.213 521.705C746 521.705 730.426 537.28 730.426 556.492C730.426 575.704 746 591.279 765.213 591.279Z" fill="white"/>
<path d="M-0.00102425 647.893C12.0537 647.893 21.8261 638.12 21.8261 626.065C21.8261 614.011 12.0537 604.238 -0.00102425 604.238C-12.0558 604.238 -21.8281 614.011 -21.8281 626.065C-21.8281 638.12 -12.0558 647.893 -0.00102425 647.893Z" fill="white"/>
<path d="M69.5732 649.588C82.5642 649.588 93.0956 639.056 93.0956 626.065C93.0956 613.074 82.5642 602.543 69.5732 602.543C56.5821 602.543 46.0508 613.074 46.0508 626.065C46.0508 639.056 56.5821 649.588 69.5732 649.588Z" fill="white"/>
<path d="M139.148 651.284C153.075 651.284 164.366 639.993 164.366 626.066C164.366 612.138 153.075 600.848 139.148 600.848C125.22 600.848 113.93 612.138 113.93 626.066C113.93 639.993 125.22 651.284 139.148 651.284Z" fill="white"/>
<path d="M208.723 652.978C223.587 652.978 235.637 640.929 235.637 626.064C235.637 611.2 223.587 599.15 208.723 599.15C193.858 599.15 181.809 611.2 181.809 626.064C181.809 640.929 193.858 652.978 208.723 652.978Z" fill="white"/>
<path d="M278.296 654.673C294.095 654.673 306.904 641.865 306.904 626.065C306.904 610.265 294.095 597.457 278.296 597.457C262.496 597.457 249.688 610.265 249.688 626.065C249.688 641.865 262.496 654.673 278.296 654.673Z" fill="white"/>
<path d="M347.87 656.37C364.607 656.37 378.174 642.802 378.174 626.066C378.174 609.329 364.607 595.762 347.87 595.762C331.134 595.762 317.566 609.329 317.566 626.066C317.566 642.802 331.134 656.37 347.87 656.37Z" fill="white"/>
<path d="M417.346 658.083C435.029 658.083 449.364 643.748 449.364 626.065C449.364 608.382 435.029 594.047 417.346 594.047C399.663 594.047 385.328 608.382 385.328 626.065C385.328 643.748 399.663 658.083 417.346 658.083Z" fill="white"/>
<path d="M486.921 659.78C505.541 659.78 520.635 644.685 520.635 626.066C520.635 607.446 505.541 592.352 486.921 592.352C468.301 592.352 453.207 607.446 453.207 626.066C453.207 644.685 468.301 659.78 486.921 659.78Z" fill="white"/>
<path d="M556.494 660.853C575.706 660.853 591.281 645.279 591.281 626.066C591.281 606.854 575.706 591.279 556.494 591.279C537.282 591.279 521.707 606.854 521.707 626.066C521.707 645.279 537.282 660.853 556.494 660.853Z" fill="white"/>
<path d="M626.064 660.853C645.277 660.853 660.851 645.279 660.851 626.066C660.851 606.854 645.277 591.279 626.064 591.279C606.852 591.279 591.277 606.854 591.277 626.066C591.277 645.279 606.852 660.853 626.064 660.853Z" fill="white"/>
<path d="M695.639 660.853C714.851 660.853 730.426 645.279 730.426 626.066C730.426 606.854 714.851 591.279 695.639 591.279C676.426 591.279 660.852 606.854 660.852 626.066C660.852 645.279 676.426 660.853 695.639 660.853Z" fill="white"/>
<path d="M765.213 660.853C784.425 660.853 800 645.279 800 626.066C800 606.854 784.425 591.279 765.213 591.279C746 591.279 730.426 606.854 730.426 626.066C730.426 645.279 746 660.853 765.213 660.853Z" fill="white"/>
<path d="M-0.000938416 719.162C12.9902 719.162 23.5216 708.631 23.5216 695.64C23.5216 682.649 12.9902 672.117 -0.000938416 672.117C-12.9921 672.117 -23.5234 682.649 -23.5234 695.64C-23.5234 708.631 -12.9921 719.162 -0.000938416 719.162Z" fill="white"/>
<path d="M69.5735 720.858C83.501 720.858 94.7915 709.567 94.7915 695.64C94.7915 681.712 83.501 670.422 69.5735 670.422C55.646 670.422 44.3555 681.712 44.3555 695.64C44.3555 709.567 55.646 720.858 69.5735 720.858Z" fill="white"/>
<path d="M139.148 722.553C154.013 722.553 166.062 710.503 166.062 695.639C166.062 680.774 154.013 668.725 139.148 668.725C124.284 668.725 112.234 680.774 112.234 695.639C112.234 710.503 124.284 722.553 139.148 722.553Z" fill="white"/>
<path d="M208.723 724.249C224.524 724.249 237.333 711.44 237.333 695.639C237.333 679.838 224.524 667.029 208.723 667.029C192.922 667.029 180.113 679.838 180.113 695.639C180.113 711.44 192.922 724.249 208.723 724.249Z" fill="white"/>
<path d="M278.296 725.944C295.033 725.944 308.6 712.376 308.6 695.64C308.6 678.904 295.033 665.336 278.296 665.336C261.56 665.336 247.992 678.904 247.992 695.64C247.992 712.376 261.56 725.944 278.296 725.944Z" fill="white"/>
<path d="M347.868 727.661C365.552 727.661 379.888 713.325 379.888 695.641C379.888 677.957 365.552 663.621 347.868 663.621C330.183 663.621 315.848 677.957 315.848 695.641C315.848 713.325 330.183 727.661 347.868 727.661Z" fill="white"/>
<path d="M417.347 729.354C435.967 729.354 451.061 714.259 451.061 695.64C451.061 677.02 435.967 661.926 417.347 661.926C398.727 661.926 383.633 677.02 383.633 695.64C383.633 714.259 398.727 729.354 417.347 729.354Z" fill="white"/>
<path d="M486.92 730.427C506.132 730.427 521.707 714.853 521.707 695.641C521.707 676.428 506.132 660.854 486.92 660.854C467.708 660.854 452.133 676.428 452.133 695.641C452.133 714.853 467.708 730.427 486.92 730.427Z" fill="white"/>
<path d="M556.494 730.427C575.706 730.427 591.281 714.853 591.281 695.641C591.281 676.428 575.706 660.854 556.494 660.854C537.282 660.854 521.707 676.428 521.707 695.641C521.707 714.853 537.282 730.427 556.494 730.427Z" fill="white"/>
<path d="M626.064 730.427C645.277 730.427 660.851 714.853 660.851 695.641C660.851 676.428 645.277 660.854 626.064 660.854C606.852 660.854 591.277 676.428 591.277 695.641C591.277 714.853 606.852 730.427 626.064 730.427Z" fill="white"/>
<path d="M695.639 730.427C714.851 730.427 730.426 714.853 730.426 695.641C730.426 676.428 714.851 660.854 695.639 660.854C676.426 660.854 660.852 676.428 660.852 695.641C660.852 714.853 676.426 730.427 695.639 730.427Z" fill="white"/>
<path d="M765.213 730.427C784.425 730.427 800 714.853 800 695.641C800 676.428 784.425 660.854 765.213 660.854C746 660.854 730.426 676.428 730.426 695.641C730.426 714.853 746 730.427 765.213 730.427Z" fill="white"/>
<path d="M-0.000650406 790.432C13.9269 790.432 25.2174 779.142 25.2174 765.214C25.2174 751.287 13.9269 739.996 -0.000650406 739.996C-13.9282 739.996 -25.2188 751.287 -25.2188 765.214C-25.2188 779.142 -13.9282 790.432 -0.000650406 790.432Z" fill="white"/>
<path d="M69.5738 792.128C84.4377 792.128 96.4874 780.078 96.4874 765.214C96.4874 750.35 84.4377 738.301 69.5738 738.301C54.7098 738.301 42.6602 750.35 42.6602 765.214C42.6602 780.078 54.7098 792.128 69.5738 792.128Z" fill="white"/>
<path d="M139.149 793.824C154.95 793.824 167.759 781.014 167.759 765.214C167.759 749.413 154.95 736.604 139.149 736.604C123.348 736.604 110.539 749.413 110.539 765.214C110.539 781.014 123.348 793.824 139.149 793.824Z" fill="white"/>
<path d="M208.722 795.518C225.458 795.518 239.026 781.951 239.026 765.214C239.026 748.478 225.458 734.91 208.722 734.91C191.986 734.91 178.418 748.478 178.418 765.214C178.418 781.951 191.986 795.518 208.722 795.518Z" fill="white"/>
<path d="M278.293 797.231C295.978 797.231 310.313 782.896 310.313 765.211C310.313 747.527 295.978 733.191 278.293 733.191C260.609 733.191 246.273 747.527 246.273 765.211C246.273 782.896 260.609 797.231 278.293 797.231Z" fill="white"/>
<path d="M347.868 798.928C366.489 798.928 381.584 783.833 381.584 765.212C381.584 746.591 366.489 731.496 347.868 731.496C329.247 731.496 314.152 746.591 314.152 765.212C314.152 783.833 329.247 798.928 347.868 798.928Z" fill="white"/>
<path d="M417.346 800C436.558 800 452.133 784.425 452.133 765.213C452.133 746 436.558 730.426 417.346 730.426C398.133 730.426 382.559 746 382.559 765.213C382.559 784.425 398.133 800 417.346 800Z" fill="white"/>
<path d="M486.92 800C506.132 800 521.707 784.425 521.707 765.213C521.707 746 506.132 730.426 486.92 730.426C467.708 730.426 452.133 746 452.133 765.213C452.133 784.425 467.708 800 486.92 800Z" fill="white"/>
<path d="M556.494 800C575.706 800 591.281 784.425 591.281 765.213C591.281 746 575.706 730.426 556.494 730.426C537.282 730.426 521.707 746 521.707 765.213C521.707 784.425 537.282 800 556.494 800Z" fill="white"/>
<path d="M626.064 800C645.277 800 660.851 784.425 660.851 765.213C660.851 746 645.277 730.426 626.064 730.426C606.852 730.426 591.277 746 591.277 765.213C591.277 784.425 606.852 800 626.064 800Z" fill="white"/>
<path d="M695.639 800C714.851 800 730.426 784.425 730.426 765.213C730.426 746 714.851 730.426 695.639 730.426C676.426 730.426 660.852 746 660.852 765.213C660.852 784.425 676.426 800 695.639 800Z" fill="white"/>
<path d="M765.213 800C784.425 800 800 784.425 800 765.213C800 746 784.425 730.426 765.213 730.426C746 730.426 730.426 746 730.426 765.213C730.426 784.425 746 800 765.213 800Z" fill="white"/>
</g>
</svg>
