<svg width="789" height="800" viewBox="0 0 789 800" fill="none" xmlns="http://www.w3.org/2000/svg">
<path d="M497.836 312.656C505.71 319.855 513.592 327.183 521.448 334.656C718.299 521.915 831.414 722.551 774.106 782.793C716.792 843.031 510.748 740.061 313.894 552.8C306.161 545.443 298.558 538.058 291.088 530.669C480.572 703.922 672.733 796.572 727.768 738.732C782.838 680.852 680.552 493.365 497.836 312.656Z" fill="black"/>
<path d="M14.8946 60.5979C72.2086 0.359925 278.252 103.331 475.106 290.591C482.815 297.924 490.389 305.291 497.836 312.656C308.376 139.448 116.261 46.8275 61.2324 104.659C6.17 162.53 108.417 349.983 291.088 530.669C283.239 523.492 275.387 516.183 267.557 508.735C70.7049 321.475 -42.4154 120.838 14.8946 60.5979Z" fill="black"/>
<path d="M520.065 240.411C519.591 269.944 533.183 293.277 552.647 296.286L669.517 314.368L549.483 332.45C529.492 335.459 511.817 358.792 507.123 388.325L468.941 628.736L472.831 388.325C473.305 358.792 459.714 335.459 440.249 332.45L323.379 314.368L443.413 296.286C463.404 293.277 481.079 269.944 485.773 240.411L523.953 0L520.065 240.411Z" fill="black"/>
</svg>
