<svg width="800" height="800" viewBox="0 0 800 800" fill="none" xmlns="http://www.w3.org/2000/svg">
<mask id="mask0_54_6065" style="mask-type:luminance" maskUnits="userSpaceOnUse" x="0" y="0" width="800" height="800">
<path d="M400 800C620.914 800 800 620.914 800 400C800 179.086 620.914 0 400 0C179.086 0 0 179.086 0 400C0 620.914 179.086 800 400 800Z" fill="white"/>
</mask>
<g mask="url(#mask0_54_6065)">
<path d="M0.00436306 10.4658C5.78419 10.4658 10.4697 5.78028 10.4697 0.00045681C10.4697 -5.77937 5.78419 -10.4648 0.00436306 -10.4648C-5.77546 -10.4648 -10.4609 -5.77937 -10.4609 0.00045681C-10.4609 5.78028 -5.77546 10.4658 0.00436306 10.4658Z" fill="white"/>
<path d="M69.5783 10.5824C75.4227 10.5824 80.1605 5.84456 80.1605 0.0001688C80.1605 -5.84422 75.4227 -10.582 69.5783 -10.582C63.7339 -10.582 58.9961 -5.84422 58.9961 0.0001688C58.9961 5.84456 63.7339 10.5824 69.5783 10.5824Z" fill="white"/>
<path d="M139.151 10.6004C145.005 10.6004 149.751 5.85461 149.751 0.000391006C149.751 -5.85383 145.005 -10.5996 139.151 -10.5996C133.297 -10.5996 128.551 -5.85383 128.551 0.000391006C128.551 5.85461 133.297 10.6004 139.151 10.6004Z" fill="white"/>
<path d="M208.723 10.6024C214.578 10.6024 219.325 5.85576 219.325 0.000437737C219.325 -5.85489 214.578 -10.6016 208.723 -10.6016C202.868 -10.6016 198.121 -5.85489 198.121 0.000437737C198.121 5.85576 202.868 10.6024 208.723 10.6024Z" fill="white"/>
<path d="M278.297 10.6024C284.153 10.6024 288.899 5.85576 288.899 0.000437737C288.899 -5.85489 284.153 -10.6016 278.297 -10.6016C272.442 -10.6016 267.695 -5.85489 267.695 0.000437737C267.695 5.85576 272.442 10.6024 278.297 10.6024Z" fill="white"/>
<path d="M347.872 10.6024C353.727 10.6024 358.474 5.85576 358.474 0.000437737C358.474 -5.85489 353.727 -10.6016 347.872 -10.6016C342.016 -10.6016 337.27 -5.85489 337.27 0.000437737C337.27 5.85576 342.016 10.6024 347.872 10.6024Z" fill="white"/>
<path d="M417.344 10.5246C423.157 10.5246 427.868 5.81281 427.868 0.000562668C427.868 -5.81168 423.157 -10.5234 417.344 -10.5234C411.532 -10.5234 406.82 -5.81168 406.82 0.000562668C406.82 5.81281 411.532 10.5246 417.344 10.5246Z" fill="white"/>
<path d="M486.922 10.582C492.766 10.582 497.504 5.84425 497.504 -3.14713e-05C497.504 -5.84431 492.766 -10.582 486.922 -10.582C481.078 -10.582 476.34 -5.84431 476.34 -3.14713e-05C476.34 5.84425 481.078 10.582 486.922 10.582Z" fill="white"/>
<path d="M556.494 10.5635C562.328 10.5635 567.058 5.83388 567.058 -0.000452995C567.058 -5.83479 562.328 -10.5645 556.494 -10.5645C550.659 -10.5645 545.93 -5.83479 545.93 -0.000452995C545.93 5.83388 550.659 10.5635 556.494 10.5635Z" fill="white"/>
<path d="M626.067 10.6024C631.922 10.6024 636.669 5.85576 636.669 0.000437737C636.669 -5.85489 631.922 -10.6016 626.067 -10.6016C620.212 -10.6016 615.465 -5.85489 615.465 0.000437737C615.465 5.85576 620.212 10.6024 626.067 10.6024Z" fill="white"/>
<path d="M695.641 10.6024C701.496 10.6024 706.243 5.85576 706.243 0.000437737C706.243 -5.85489 701.496 -10.6016 695.641 -10.6016C689.786 -10.6016 685.039 -5.85489 685.039 0.000437737C685.039 5.85576 689.786 10.6024 695.641 10.6024Z" fill="white"/>
<path d="M765.215 10.6024C771.071 10.6024 775.817 5.85576 775.817 0.000437737C775.817 -5.85489 771.071 -10.6016 765.215 -10.6016C759.36 -10.6016 754.613 -5.85489 754.613 0.000437737C754.613 5.85576 759.36 10.6024 765.215 10.6024Z" fill="white"/>
<path d="M0.00395012 80.2345C5.89142 80.2345 10.6642 75.4617 10.6642 69.5743C10.6642 63.6868 5.89142 58.9141 0.00395012 58.9141C-5.88352 58.9141 -10.6562 63.6868 -10.6562 69.5743C-10.6562 75.4617 -5.88352 80.2345 0.00395012 80.2345Z" fill="white"/>
<path d="M69.5768 80.8567C75.8086 80.8567 80.8606 75.8047 80.8606 69.5729C80.8606 63.341 75.8086 58.2891 69.5768 58.2891C63.3449 58.2891 58.293 63.341 58.293 69.5729C58.293 75.8047 63.3449 80.8567 69.5768 80.8567Z" fill="white"/>
<path d="M139.147 81.2669C145.606 81.2669 150.841 76.0313 150.841 69.5729C150.841 63.1145 145.606 57.8789 139.147 57.8789C132.689 57.8789 127.453 63.1145 127.453 69.5729C127.453 76.0313 132.689 81.2669 139.147 81.2669Z" fill="white"/>
<path d="M208.722 81.7341C215.438 81.7341 220.882 76.2898 220.882 69.5741C220.882 62.8583 215.438 57.4141 208.722 57.4141C202.007 57.4141 196.562 62.8583 196.562 69.5741C196.562 76.2898 202.007 81.7341 208.722 81.7341Z" fill="white"/>
<path d="M278.299 82.1828C285.263 82.1828 290.907 76.538 290.907 69.5748C290.907 62.6116 285.263 56.9668 278.299 56.9668C271.336 56.9668 265.691 62.6116 265.691 69.5748C265.691 76.538 271.336 82.1828 278.299 82.1828Z" fill="white"/>
<path d="M347.871 82.5742C355.051 82.5742 360.871 76.7539 360.871 69.5742C360.871 62.3945 355.051 56.5742 347.871 56.5742C340.691 56.5742 334.871 62.3945 334.871 69.5742C334.871 76.7539 340.691 82.5742 347.871 82.5742Z" fill="white"/>
<path d="M417.348 82.9985C424.763 82.9985 430.774 76.9875 430.774 69.5725C430.774 62.1575 424.763 56.1465 417.348 56.1465C409.933 56.1465 403.922 62.1575 403.922 69.5725C403.922 76.9875 409.933 82.9985 417.348 82.9985Z" fill="white"/>
<path d="M486.922 83.4308C494.575 83.4308 500.778 77.2272 500.778 69.5747C500.778 61.9223 494.575 55.7188 486.922 55.7188C479.27 55.7188 473.066 61.9223 473.066 69.5747C473.066 77.2272 479.27 83.4308 486.922 83.4308Z" fill="white"/>
<path d="M556.493 83.0394C563.93 83.0394 569.959 77.0105 569.959 69.5734C569.959 62.1364 563.93 56.1074 556.493 56.1074C549.056 56.1074 543.027 62.1364 543.027 69.5734C543.027 77.0105 549.056 83.0394 556.493 83.0394Z" fill="white"/>
<path d="M626.065 82.6112C633.266 82.6112 639.103 76.7738 639.103 69.5732C639.103 62.3725 633.266 56.5352 626.065 56.5352C618.865 56.5352 613.027 62.3725 613.027 69.5732C613.027 76.7738 618.865 82.6112 626.065 82.6112Z" fill="white"/>
<path d="M695.641 82.1848C702.606 82.1848 708.251 76.5392 708.251 69.5748C708.251 62.6105 702.606 56.9648 695.641 56.9648C688.677 56.9648 683.031 62.6105 683.031 69.5748C683.031 76.5392 688.677 82.1848 695.641 82.1848Z" fill="white"/>
<path d="M765.216 81.775C771.954 81.775 777.416 76.3129 777.416 69.575C777.416 62.8371 771.954 57.375 765.216 57.375C758.478 57.375 753.016 62.8371 753.016 69.575C753.016 76.3129 758.478 81.775 765.216 81.775Z" fill="white"/>
<path d="M0.00366211 149.925C5.95569 149.925 10.7808 145.1 10.7808 139.148C10.7808 133.196 5.95569 128.371 0.00366211 128.371C-5.94837 128.371 -10.7734 133.196 -10.7734 139.148C-10.7734 145.1 -5.94837 149.925 0.00366211 149.925Z" fill="white"/>
<path d="M69.5751 151.191C76.2267 151.191 81.6189 145.799 81.6189 139.147C81.6189 132.496 76.2267 127.104 69.5751 127.104C62.9234 127.104 57.5312 132.496 57.5312 139.147C57.5312 145.799 62.9234 151.191 69.5751 151.191Z" fill="white"/>
<path d="M139.148 152.03C146.262 152.03 152.03 146.262 152.03 139.148C152.03 132.033 146.262 126.266 139.148 126.266C132.033 126.266 126.266 132.033 126.266 139.148C126.266 146.262 132.033 152.03 139.148 152.03Z" fill="white"/>
<path d="M208.72 152.888C216.309 152.888 222.46 146.737 222.46 139.148C222.46 131.56 216.309 125.408 208.72 125.408C201.132 125.408 194.98 131.56 194.98 139.148C194.98 146.737 201.132 152.888 208.72 152.888Z" fill="white"/>
<path d="M278.3 153.685C286.329 153.685 292.838 147.176 292.838 139.147C292.838 131.118 286.329 124.609 278.3 124.609C270.271 124.609 263.762 131.118 263.762 139.147C263.762 147.176 270.271 153.685 278.3 153.685Z" fill="white"/>
<path d="M347.873 154.544C356.376 154.544 363.269 147.651 363.269 139.148C363.269 130.645 356.376 123.752 347.873 123.752C339.37 123.752 332.477 130.645 332.477 139.148C332.477 147.651 339.37 154.544 347.873 154.544Z" fill="white"/>
<path d="M417.347 155.382C426.313 155.382 433.581 148.114 433.581 139.148C433.581 130.182 426.313 122.914 417.347 122.914C408.381 122.914 401.113 130.182 401.113 139.148C401.113 148.114 408.381 155.382 417.347 155.382Z" fill="white"/>
<path d="M486.923 156.278C496.384 156.278 504.053 148.608 504.053 139.148C504.053 129.687 496.384 122.018 486.923 122.018C477.462 122.018 469.793 129.687 469.793 139.148C469.793 148.608 477.462 156.278 486.923 156.278Z" fill="white"/>
<path d="M556.494 155.478C565.513 155.478 572.824 148.167 572.824 139.148C572.824 130.13 565.513 122.818 556.494 122.818C547.475 122.818 540.164 130.13 540.164 139.148C540.164 148.167 547.475 155.478 556.494 155.478Z" fill="white"/>
<path d="M626.068 154.642C634.625 154.642 641.562 147.705 641.562 139.148C641.562 130.591 634.625 123.654 626.068 123.654C617.511 123.654 610.574 130.591 610.574 139.148C610.574 147.705 617.511 154.642 626.068 154.642Z" fill="white"/>
<path d="M695.644 153.784C703.727 153.784 710.28 147.231 710.28 139.148C710.28 131.064 703.727 124.512 695.644 124.512C687.561 124.512 681.008 131.064 681.008 139.148C681.008 147.231 687.561 153.784 695.644 153.784Z" fill="white"/>
<path d="M765.213 152.966C772.844 152.966 779.031 146.78 779.031 139.148C779.031 131.517 772.844 125.33 765.213 125.33C757.581 125.33 751.395 131.517 751.395 139.148C751.395 146.78 757.581 152.966 765.213 152.966Z" fill="white"/>
<path d="M0.00331306 219.653C6.04144 219.653 10.9363 214.758 10.9363 208.72C10.9363 202.682 6.04144 197.787 0.00331306 197.787C-6.03482 197.787 -10.9297 202.682 -10.9297 208.72C-10.9297 214.758 -6.03482 219.653 0.00331306 219.653Z" fill="white"/>
<path d="M69.5734 221.485C76.6232 221.485 82.3382 215.77 82.3382 208.72C82.3382 201.67 76.6232 195.955 69.5734 195.955C62.5236 195.955 56.8086 201.67 56.8086 208.72C56.8086 215.77 62.5236 221.485 69.5734 221.485Z" fill="white"/>
<path d="M139.148 222.772C146.907 222.772 153.198 216.481 153.198 208.722C153.198 200.962 146.907 194.672 139.148 194.672C131.388 194.672 125.098 200.962 125.098 208.722C125.098 216.481 131.388 222.772 139.148 222.772Z" fill="white"/>
<path d="M208.726 224.022C217.176 224.022 224.026 217.172 224.026 208.722C224.026 200.272 217.176 193.422 208.726 193.422C200.276 193.422 193.426 200.272 193.426 208.722C193.426 217.172 200.276 224.022 208.726 224.022Z" fill="white"/>
<path d="M278.296 225.288C287.446 225.288 294.862 217.871 294.862 208.722C294.862 199.573 287.446 192.156 278.296 192.156C269.147 192.156 261.73 199.573 261.73 208.722C261.73 217.871 269.147 225.288 278.296 225.288Z" fill="white"/>
<path d="M347.872 226.573C357.731 226.573 365.724 218.581 365.724 208.721C365.724 198.862 357.731 190.869 347.872 190.869C338.012 190.869 330.02 198.862 330.02 208.721C330.02 218.581 338.012 226.573 347.872 226.573Z" fill="white"/>
<path d="M417.346 227.821C427.895 227.821 436.446 219.27 436.446 208.721C436.446 198.172 427.895 189.621 417.346 189.621C406.797 189.621 398.246 198.172 398.246 208.721C398.246 219.27 406.797 227.821 417.346 227.821Z" fill="white"/>
<path d="M486.921 229.03C498.137 229.03 507.229 219.938 507.229 208.722C507.229 197.506 498.137 188.414 486.921 188.414C475.705 188.414 466.613 197.506 466.613 208.722C466.613 219.938 475.705 229.03 486.921 229.03Z" fill="white"/>
<path d="M556.495 227.936C567.107 227.936 575.709 219.333 575.709 208.722C575.709 198.11 567.107 189.508 556.495 189.508C545.884 189.508 537.281 198.11 537.281 208.722C537.281 219.333 545.884 227.936 556.495 227.936Z" fill="white"/>
<path d="M626.067 226.671C635.981 226.671 644.017 218.635 644.017 208.721C644.017 198.808 635.981 190.771 626.067 190.771C616.154 190.771 608.117 198.808 608.117 208.721C608.117 218.635 616.154 226.671 626.067 226.671Z" fill="white"/>
<path d="M695.642 225.442C704.876 225.442 712.362 217.956 712.362 208.722C712.362 199.488 704.876 192.002 695.642 192.002C686.408 192.002 678.922 199.488 678.922 208.722C678.922 217.956 686.408 225.442 695.642 225.442Z" fill="white"/>
<path d="M765.217 224.137C773.731 224.137 780.633 217.235 780.633 208.721C780.633 200.207 773.731 193.305 765.217 193.305C756.703 193.305 749.801 200.207 749.801 208.721C749.801 217.235 756.703 224.137 765.217 224.137Z" fill="white"/>
<path d="M0.00296307 289.383C6.12719 289.383 11.0919 284.418 11.0919 278.294C11.0919 272.17 6.12719 267.205 0.00296307 267.205C-6.12127 267.205 -11.0859 272.17 -11.0859 278.294C-11.0859 284.418 -6.12127 289.383 0.00296307 289.383Z" fill="white"/>
<path d="M69.5757 291.802C77.0345 291.802 83.0811 285.755 83.0811 278.296C83.0811 270.838 77.0345 264.791 69.5757 264.791C62.1169 264.791 56.0703 270.838 56.0703 278.296C56.0703 285.755 62.1169 291.802 69.5757 291.802Z" fill="white"/>
<path d="M139.152 293.518C147.559 293.518 154.374 286.703 154.374 278.296C154.374 269.889 147.559 263.074 139.152 263.074C130.745 263.074 123.93 269.889 123.93 278.296C123.93 286.703 130.745 293.518 139.152 293.518Z" fill="white"/>
<path d="M208.724 295.17C218.044 295.17 225.6 287.614 225.6 278.294C225.6 268.974 218.044 261.418 208.724 261.418C199.403 261.418 191.848 268.974 191.848 278.294C191.848 287.614 199.403 295.17 208.724 295.17Z" fill="white"/>
<path d="M278.295 296.867C288.552 296.867 296.867 288.552 296.867 278.295C296.867 268.038 288.552 259.723 278.295 259.723C268.038 259.723 259.723 268.038 259.723 278.295C259.723 288.552 268.038 296.867 278.295 296.867Z" fill="white"/>
<path d="M347.871 298.545C359.055 298.545 368.121 289.479 368.121 278.295C368.121 267.111 359.055 258.045 347.871 258.045C336.687 258.045 327.621 267.111 327.621 278.295C327.621 289.479 336.687 298.545 347.871 298.545Z" fill="white"/>
<path d="M417.346 300.238C429.466 300.238 439.29 290.413 439.29 278.294C439.29 266.174 429.466 256.35 417.346 256.35C405.227 256.35 395.402 266.174 395.402 278.294C395.402 290.413 405.227 300.238 417.346 300.238Z" fill="white"/>
<path d="M486.918 301.895C499.953 301.895 510.52 291.328 510.52 278.293C510.52 265.258 499.953 254.691 486.918 254.691C473.883 254.691 463.316 265.258 463.316 278.293C463.316 291.328 473.883 301.895 486.918 301.895Z" fill="white"/>
<path d="M556.491 300.395C568.696 300.395 578.591 290.501 578.591 278.295C578.591 266.09 568.696 256.195 556.491 256.195C544.285 256.195 534.391 266.09 534.391 278.295C534.391 290.501 544.285 300.395 556.491 300.395Z" fill="white"/>
<path d="M626.065 298.738C637.356 298.738 646.509 289.585 646.509 278.294C646.509 267.003 637.356 257.85 626.065 257.85C614.774 257.85 605.621 267.003 605.621 278.294C605.621 289.585 614.774 298.738 626.065 298.738Z" fill="white"/>
<path d="M695.643 297.065C706.008 297.065 714.411 288.663 714.411 278.297C714.411 267.932 706.008 259.529 695.643 259.529C685.278 259.529 676.875 267.932 676.875 278.297C676.875 288.663 685.278 297.065 695.643 297.065Z" fill="white"/>
<path d="M765.216 295.328C774.622 295.328 782.248 287.702 782.248 278.296C782.248 268.889 774.622 261.264 765.216 261.264C755.809 261.264 748.184 268.889 748.184 278.296C748.184 287.702 755.809 295.328 765.216 295.328Z" fill="white"/>
<path d="M-0.0013876 359.171C6.24125 359.171 11.3019 354.11 11.3019 347.868C11.3019 341.625 6.24125 336.564 -0.0013876 336.564C-6.24403 336.564 -11.3047 341.625 -11.3047 347.868C-11.3047 354.11 -6.24403 359.171 -0.0013876 359.171Z" fill="white"/>
<path d="M69.5781 362.076C77.4244 362.076 83.7851 355.715 83.7851 347.869C83.7851 340.023 77.4244 333.662 69.5781 333.662C61.7318 333.662 55.3711 340.023 55.3711 347.869C55.3711 355.715 61.7318 362.076 69.5781 362.076Z" fill="white"/>
<path d="M139.148 364.259C148.2 364.259 155.538 356.92 155.538 347.868C155.538 338.817 148.2 331.479 139.148 331.479C130.096 331.479 122.758 338.817 122.758 347.868C122.758 356.92 130.096 364.259 139.148 364.259Z" fill="white"/>
<path d="M208.721 366.304C218.903 366.304 227.157 358.05 227.157 347.868C227.157 337.686 218.903 329.432 208.721 329.432C198.539 329.432 190.285 337.686 190.285 347.868C190.285 358.05 198.539 366.304 208.721 366.304Z" fill="white"/>
<path d="M278.295 368.449C289.661 368.449 298.875 359.235 298.875 347.869C298.875 336.503 289.661 327.289 278.295 327.289C266.929 327.289 257.715 336.503 257.715 347.869C257.715 359.235 266.929 368.449 278.295 368.449Z" fill="white"/>
<path d="M347.871 370.552C360.4 370.552 370.555 360.396 370.555 347.868C370.555 335.34 360.4 325.184 347.871 325.184C335.343 325.184 325.188 335.34 325.188 347.868C325.188 360.396 335.343 370.552 347.871 370.552Z" fill="white"/>
<path d="M417.345 372.66C431.036 372.66 442.135 361.561 442.135 347.87C442.135 334.179 431.036 323.08 417.345 323.08C403.654 323.08 392.555 334.179 392.555 347.87C392.555 361.561 403.654 372.66 417.345 372.66Z" fill="white"/>
<path d="M486.92 374.724C501.751 374.724 513.774 362.701 513.774 347.87C513.774 333.039 501.751 321.016 486.92 321.016C472.089 321.016 460.066 333.039 460.066 347.87C460.066 362.701 472.089 374.724 486.92 374.724Z" fill="white"/>
<path d="M556.496 372.873C570.306 372.873 581.5 361.679 581.5 347.869C581.5 334.06 570.306 322.865 556.496 322.865C542.687 322.865 531.492 334.06 531.492 347.869C531.492 361.679 542.687 372.873 556.496 372.873Z" fill="white"/>
<path d="M626.07 370.767C638.716 370.767 648.968 360.515 648.968 347.869C648.968 335.222 638.716 324.971 626.07 324.971C613.424 324.971 603.172 335.222 603.172 347.869C603.172 360.515 613.424 370.767 626.07 370.767Z" fill="white"/>
<path d="M695.643 368.644C707.117 368.644 716.419 359.342 716.419 347.868C716.419 336.394 707.117 327.092 695.643 327.092C684.169 327.092 674.867 336.394 674.867 347.868C674.867 359.342 684.169 368.644 695.643 368.644Z" fill="white"/>
<path d="M765.216 366.519C775.517 366.519 783.866 358.169 783.866 347.869C783.866 337.569 775.517 329.219 765.216 329.219C754.916 329.219 746.566 337.569 746.566 347.869C746.566 358.169 754.916 366.519 765.216 366.519Z" fill="white"/>
<path d="M-0.00167561 428.766C6.30553 428.766 11.4185 423.653 11.4185 417.346C11.4185 411.039 6.30553 405.926 -0.00167561 405.926C-6.30888 405.926 -11.4219 411.039 -11.4219 417.346C-11.4219 423.653 -6.30888 428.766 -0.00167561 428.766Z" fill="white"/>
<path d="M69.5765 432.294C77.8318 432.294 84.5241 425.601 84.5241 417.346C84.5241 409.091 77.8318 402.398 69.5765 402.398C61.3212 402.398 54.6289 409.091 54.6289 417.346C54.6289 425.601 61.3212 432.294 69.5765 432.294Z" fill="white"/>
<path d="M139.148 434.825C148.802 434.825 156.628 426.999 156.628 417.345C156.628 407.691 148.802 399.865 139.148 399.865C129.494 399.865 121.668 407.691 121.668 417.345C121.668 426.999 129.494 434.825 139.148 434.825Z" fill="white"/>
<path d="M208.722 437.399C219.797 437.399 228.776 428.421 228.776 417.345C228.776 406.27 219.797 397.291 208.722 397.291C197.646 397.291 188.668 406.27 188.668 417.345C188.668 428.421 197.646 437.399 208.722 437.399Z" fill="white"/>
<path d="M278.298 439.893C290.751 439.893 300.846 429.798 300.846 417.345C300.846 404.892 290.751 394.797 278.298 394.797C265.845 394.797 255.75 404.892 255.75 417.345C255.75 429.798 265.845 439.893 278.298 439.893Z" fill="white"/>
<path d="M347.87 442.465C361.743 442.465 372.99 431.218 372.99 417.345C372.99 403.471 361.743 392.225 347.87 392.225C333.997 392.225 322.75 403.471 322.75 417.345C322.75 431.218 333.997 442.465 347.87 442.465Z" fill="white"/>
<path d="M417.349 444.999C432.622 444.999 445.003 432.618 445.003 417.345C445.003 402.073 432.622 389.691 417.349 389.691C402.076 389.691 389.695 402.073 389.695 417.345C389.695 432.618 402.076 444.999 417.349 444.999Z" fill="white"/>
<path d="M486.922 447.514C503.583 447.514 517.09 434.007 517.09 417.346C517.09 400.684 503.583 387.178 486.922 387.178C470.261 387.178 456.754 400.684 456.754 417.346C456.754 434.007 470.261 447.514 486.922 447.514Z" fill="white"/>
<path d="M556.493 445.213C571.884 445.213 584.361 432.736 584.361 417.345C584.361 401.953 571.884 389.477 556.493 389.477C541.102 389.477 528.625 401.953 528.625 417.345C528.625 432.736 541.102 445.213 556.493 445.213Z" fill="white"/>
<path d="M626.069 442.7C640.071 442.7 651.423 431.349 651.423 417.346C651.423 403.344 640.071 391.992 626.069 391.992C612.066 391.992 600.715 403.344 600.715 417.346C600.715 431.349 612.066 442.7 626.069 442.7Z" fill="white"/>
<path d="M695.641 440.184C708.255 440.184 718.481 429.958 718.481 417.344C718.481 404.73 708.255 394.504 695.641 394.504C683.027 394.504 672.801 404.73 672.801 417.344C672.801 429.958 683.027 440.184 695.641 440.184Z" fill="white"/>
<path d="M765.216 437.651C776.431 437.651 785.522 428.56 785.522 417.345C785.522 406.13 776.431 397.039 765.216 397.039C754.001 397.039 744.91 406.13 744.91 417.345C744.91 428.56 754.001 437.651 765.216 437.651Z" fill="white"/>
<path d="M0.00185013 498.515C6.40592 498.515 11.5975 493.324 11.5975 486.92C11.5975 480.516 6.40592 475.324 0.00185013 475.324C-6.40222 475.324 -11.5938 480.516 -11.5938 486.92C-11.5938 493.324 -6.40222 498.515 0.00185013 498.515Z" fill="white"/>
<path d="M69.5786 502.665C78.2752 502.665 85.3252 495.615 85.3252 486.918C85.3252 478.222 78.2752 471.172 69.5786 471.172C60.882 471.172 53.832 478.222 53.832 486.918C53.832 495.615 60.882 502.665 69.5786 502.665Z" fill="white"/>
<path d="M139.148 505.572C149.449 505.572 157.8 497.221 157.8 486.92C157.8 476.618 149.449 468.268 139.148 468.268C128.847 468.268 120.496 476.618 120.496 486.92C120.496 497.221 128.847 505.572 139.148 505.572Z" fill="white"/>
<path d="M208.723 508.512C220.649 508.512 230.317 498.844 230.317 486.918C230.317 474.992 220.649 465.324 208.723 465.324C196.797 465.324 187.129 474.992 187.129 486.918C187.129 498.844 196.797 508.512 208.723 508.512Z" fill="white"/>
<path d="M278.298 511.475C291.86 511.475 302.854 500.481 302.854 486.919C302.854 473.357 291.86 462.363 278.298 462.363C264.736 462.363 253.742 473.357 253.742 486.919C253.742 500.481 264.736 511.475 278.298 511.475Z" fill="white"/>
<path d="M347.87 514.457C363.079 514.457 375.408 502.128 375.408 486.919C375.408 471.71 363.079 459.381 347.87 459.381C332.661 459.381 320.332 471.71 320.332 486.919C320.332 502.128 332.661 514.457 347.87 514.457Z" fill="white"/>
<path d="M417.349 517.381C434.172 517.381 447.811 503.743 447.811 486.919C447.811 470.095 434.172 456.457 417.349 456.457C400.525 456.457 386.887 470.095 386.887 486.919C386.887 503.743 400.525 517.381 417.349 517.381Z" fill="white"/>
<path d="M486.919 520.381C505.4 520.381 520.381 505.4 520.381 486.919C520.381 468.438 505.4 453.457 486.919 453.457C468.438 453.457 453.457 468.438 453.457 486.919C453.457 505.4 468.438 520.381 486.919 520.381Z" fill="white"/>
<path d="M556.494 517.672C573.478 517.672 587.246 503.904 587.246 486.92C587.246 469.936 573.478 456.168 556.494 456.168C539.51 456.168 525.742 469.936 525.742 486.92C525.742 503.904 539.51 517.672 556.494 517.672Z" fill="white"/>
<path d="M626.068 514.75C641.438 514.75 653.898 502.29 653.898 486.92C653.898 471.55 641.438 459.09 626.068 459.09C610.698 459.09 598.238 471.55 598.238 486.92C598.238 502.29 610.698 514.75 626.068 514.75Z" fill="white"/>
<path d="M695.643 511.785C709.376 511.785 720.509 500.652 720.509 486.919C720.509 473.186 709.376 462.053 695.643 462.053C681.91 462.053 670.777 473.186 670.777 486.919C670.777 500.652 681.91 511.785 695.643 511.785Z" fill="white"/>
<path d="M765.214 508.805C777.301 508.805 787.1 499.007 787.1 486.919C787.1 474.832 777.301 465.033 765.214 465.033C753.127 465.033 743.328 474.832 743.328 486.919C743.328 499.007 753.127 508.805 765.214 508.805Z" fill="white"/>
<path d="M0.0017252 568.168C6.44888 568.168 11.6753 562.941 11.6753 556.494C11.6753 550.047 6.44888 544.82 0.0017252 544.82C-6.44543 544.82 -11.6719 550.047 -11.6719 556.494C-11.6719 562.941 -6.44543 568.168 0.0017252 568.168Z" fill="white"/>
<path d="M69.5733 572.922C78.6467 572.922 86.0021 565.567 86.0021 556.493C86.0021 547.42 78.6467 540.064 69.5733 540.064C60.5 540.064 53.1445 547.42 53.1445 556.493C53.1445 565.567 60.5 572.922 69.5733 572.922Z" fill="white"/>
<path d="M139.152 576.291C150.087 576.291 158.952 567.427 158.952 556.491C158.952 545.556 150.087 536.691 139.152 536.691C128.216 536.691 119.352 545.556 119.352 556.491C119.352 567.427 128.216 576.291 139.152 576.291Z" fill="white"/>
<path d="M208.726 579.703C221.544 579.703 231.936 569.312 231.936 556.493C231.936 543.675 221.544 533.283 208.726 533.283C195.907 533.283 185.516 543.675 185.516 556.493C185.516 569.312 195.907 579.703 208.726 579.703Z" fill="white"/>
<path d="M278.297 583.074C292.978 583.074 304.879 571.173 304.879 556.492C304.879 541.811 292.978 529.91 278.297 529.91C263.616 529.91 251.715 541.811 251.715 556.492C251.715 571.173 263.616 583.074 278.297 583.074Z" fill="white"/>
<path d="M347.87 586.429C364.403 586.429 377.806 573.026 377.806 556.493C377.806 539.959 364.403 526.557 347.87 526.557C331.336 526.557 317.934 539.959 317.934 556.493C317.934 573.026 331.336 586.429 347.87 586.429Z" fill="white"/>
<path d="M417.348 589.857C435.775 589.857 450.712 574.919 450.712 556.493C450.712 538.066 435.775 523.129 417.348 523.129C398.922 523.129 383.984 538.066 383.984 556.493C383.984 574.919 398.922 589.857 417.348 589.857Z" fill="white"/>
<path d="M486.924 591.281C506.136 591.281 521.711 575.706 521.711 556.494C521.711 537.282 506.136 521.707 486.924 521.707C467.711 521.707 452.137 537.282 452.137 556.494C452.137 575.706 467.711 591.281 486.924 591.281Z" fill="white"/>
<path d="M556.493 590.13C575.071 590.13 590.131 575.069 590.131 556.492C590.131 537.914 575.071 522.854 556.493 522.854C537.916 522.854 522.855 537.914 522.855 556.492C522.855 575.069 537.916 590.13 556.493 590.13Z" fill="white"/>
<path d="M626.067 586.779C642.794 586.779 656.353 573.22 656.353 556.493C656.353 539.767 642.794 526.207 626.067 526.207C609.341 526.207 595.781 539.767 595.781 556.493C595.781 573.22 609.341 586.779 626.067 586.779Z" fill="white"/>
<path d="M695.637 583.349C710.469 583.349 722.493 571.325 722.493 556.493C722.493 541.661 710.469 529.637 695.637 529.637C680.805 529.637 668.781 541.661 668.781 556.493C668.781 571.325 680.805 583.349 695.637 583.349Z" fill="white"/>
<path d="M765.215 580.017C778.207 580.017 788.739 569.485 788.739 556.493C788.739 543.501 778.207 532.969 765.215 532.969C752.223 532.969 741.691 543.501 741.691 556.493C741.691 569.485 752.223 580.017 765.215 580.017Z" fill="white"/>
<path d="M0.00436306 636.532C5.78419 636.532 10.4697 631.847 10.4697 626.067C10.4697 620.287 5.78419 615.602 0.00436306 615.602C-5.77546 615.602 -10.4609 620.287 -10.4609 626.067C-10.4609 631.847 -5.77546 636.532 0.00436306 636.532Z" fill="white"/>
<path d="M69.5777 638.616C76.5091 638.616 82.1281 632.997 82.1281 626.066C82.1281 619.135 76.5091 613.516 69.5777 613.516C62.6464 613.516 57.0273 619.135 57.0273 626.066C57.0273 632.997 62.6464 638.616 69.5777 638.616Z" fill="white"/>
<path d="M139.151 644.833C149.516 644.833 157.919 636.43 157.919 626.065C157.919 615.7 149.516 607.297 139.151 607.297C128.786 607.297 120.383 615.7 120.383 626.065C120.383 636.43 128.786 644.833 139.151 644.833Z" fill="white"/>
<path d="M208.722 647.874C220.766 647.874 230.53 638.11 230.53 626.066C230.53 614.022 220.766 604.258 208.722 604.258C196.678 604.258 186.914 614.022 186.914 626.066C186.914 638.11 196.678 647.874 208.722 647.874Z" fill="white"/>
<path d="M278.297 650.837C291.977 650.837 303.067 639.747 303.067 626.067C303.067 612.387 291.977 601.297 278.297 601.297C264.617 601.297 253.527 612.387 253.527 626.067C253.527 639.747 264.617 650.837 278.297 650.837Z" fill="white"/>
<path d="M347.869 653.817C363.196 653.817 375.621 641.392 375.621 626.065C375.621 610.738 363.196 598.312 347.869 598.312C332.542 598.312 320.117 610.738 320.117 626.065C320.117 641.392 332.542 653.817 347.869 653.817Z" fill="white"/>
<path d="M417.347 656.78C434.31 656.78 448.061 643.028 448.061 626.066C448.061 609.103 434.31 595.352 417.347 595.352C400.384 595.352 386.633 609.103 386.633 626.066C386.633 643.028 400.384 656.78 417.347 656.78Z" fill="white"/>
<path d="M486.919 659.841C505.571 659.841 520.693 644.72 520.693 626.067C520.693 607.414 505.571 592.293 486.919 592.293C468.266 592.293 453.145 607.414 453.145 626.067C453.145 644.72 468.266 659.841 486.919 659.841Z" fill="white"/>
<path d="M556.49 657.148C573.658 657.148 587.574 643.232 587.574 626.064C587.574 608.897 573.658 594.98 556.49 594.98C539.323 594.98 525.406 608.897 525.406 626.064C525.406 643.232 539.323 657.148 556.49 657.148Z" fill="white"/>
<path d="M626.067 654.109C641.556 654.109 654.111 641.554 654.111 626.065C654.111 610.577 641.556 598.021 626.067 598.021C610.579 598.021 598.023 610.577 598.023 626.065C598.023 641.554 610.579 654.109 626.067 654.109Z" fill="white"/>
<path d="M695.642 651.13C709.485 651.13 720.706 639.908 720.706 626.066C720.706 612.223 709.485 601.002 695.642 601.002C681.8 601.002 670.578 612.223 670.578 626.066C670.578 639.908 681.8 651.13 695.642 651.13Z" fill="white"/>
<path d="M765.214 648.128C777.399 648.128 787.276 638.25 787.276 626.066C787.276 613.881 777.399 604.004 765.214 604.004C753.03 604.004 743.152 613.881 743.152 626.066C743.152 638.25 753.03 648.128 765.214 648.128Z" fill="white"/>
<path d="M0.00296307 706.729C6.12719 706.729 11.0919 701.764 11.0919 695.64C11.0919 689.515 6.12719 684.551 0.00296307 684.551C-6.12127 684.551 -11.0859 689.515 -11.0859 695.64C-11.0859 701.764 -6.12127 706.729 0.00296307 706.729Z" fill="white"/>
<path d="M69.5763 710.705C77.8963 710.705 84.6409 703.961 84.6409 695.641C84.6409 687.321 77.8963 680.576 69.5763 680.576C61.2564 680.576 54.5117 687.321 54.5117 695.641C54.5117 703.961 61.2564 710.705 69.5763 710.705Z" fill="white"/>
<path d="M139.148 713.276C148.888 713.276 156.784 705.38 156.784 695.64C156.784 685.9 148.888 678.004 139.148 678.004C129.408 678.004 121.512 685.9 121.512 695.64C121.512 705.38 129.408 713.276 139.148 713.276Z" fill="white"/>
<path d="M208.725 715.811C219.864 715.811 228.895 706.78 228.895 695.641C228.895 684.501 219.864 675.471 208.725 675.471C197.585 675.471 188.555 684.501 188.555 695.641C188.555 706.78 197.585 715.811 208.725 715.811Z" fill="white"/>
<path d="M278.295 718.403C290.867 718.403 301.059 708.211 301.059 695.639C301.059 683.067 290.867 672.875 278.295 672.875C265.723 672.875 255.531 683.067 255.531 695.639C255.531 708.211 265.723 718.403 278.295 718.403Z" fill="white"/>
<path d="M347.873 720.975C361.865 720.975 373.207 709.632 373.207 695.641C373.207 681.649 361.865 670.307 347.873 670.307C333.881 670.307 322.539 681.649 322.539 695.641C322.539 709.632 333.881 720.975 347.873 720.975Z" fill="white"/>
<path d="M417.346 723.587C432.782 723.587 445.294 711.075 445.294 695.639C445.294 680.204 432.782 667.691 417.346 667.691C401.911 667.691 389.398 680.204 389.398 695.639C389.398 711.075 401.911 723.587 417.346 723.587Z" fill="white"/>
<path d="M486.921 726.12C503.755 726.12 517.401 712.474 517.401 695.64C517.401 678.807 503.755 665.16 486.921 665.16C470.088 665.16 456.441 678.807 456.441 695.64C456.441 712.474 470.088 726.12 486.921 726.12Z" fill="white"/>
<path d="M556.495 723.821C572.059 723.821 584.677 711.204 584.677 695.639C584.677 680.075 572.059 667.457 556.495 667.457C540.93 667.457 528.312 680.075 528.312 695.639C528.312 711.204 540.93 723.821 556.495 723.821Z" fill="white"/>
<path d="M626.067 721.266C640.22 721.266 651.693 709.793 651.693 695.64C651.693 681.487 640.22 670.014 626.067 670.014C611.915 670.014 600.441 681.487 600.441 695.64C600.441 709.793 611.915 721.266 626.067 721.266Z" fill="white"/>
<path d="M695.641 718.655C708.352 718.655 718.657 708.35 718.657 695.639C718.657 682.928 708.352 672.623 695.641 672.623C682.93 672.623 672.625 682.928 672.625 695.639C672.625 708.35 682.93 718.655 695.641 718.655Z" fill="white"/>
<path d="M765.216 716.102C776.517 716.102 785.678 706.941 785.678 695.64C785.678 684.339 776.517 675.178 765.216 675.178C753.915 675.178 744.754 684.339 744.754 695.64C744.754 706.941 753.915 716.102 765.216 716.102Z" fill="white"/>
<path d="M-0.000337601 776.048C5.984 776.048 10.8353 771.197 10.8353 765.213C10.8353 759.228 5.984 754.377 -0.000337601 754.377C-5.98467 754.377 -10.8359 759.228 -10.8359 765.213C-10.8359 771.197 -5.98467 776.048 -0.000337601 776.048Z" fill="white"/>
<path d="M69.5779 779.537C77.4888 779.537 83.9019 773.124 83.9019 765.213C83.9019 757.302 77.4888 750.889 69.5779 750.889C61.667 750.889 55.2539 757.302 55.2539 765.213C55.2539 773.124 61.667 779.537 69.5779 779.537Z" fill="white"/>
<path d="M139.148 781.68C148.243 781.68 155.616 774.307 155.616 765.212C155.616 756.117 148.243 748.744 139.148 748.744C130.053 748.744 122.68 756.117 122.68 765.212C122.68 774.307 130.053 781.68 139.148 781.68Z" fill="white"/>
<path d="M208.725 783.807C218.993 783.807 227.317 775.483 227.317 765.215C227.317 754.947 218.993 746.623 208.725 746.623C198.457 746.623 190.133 754.947 190.133 765.215C190.133 775.483 198.457 783.807 208.725 783.807Z" fill="white"/>
<path d="M278.297 785.967C289.759 785.967 299.051 776.675 299.051 765.213C299.051 753.751 289.759 744.459 278.297 744.459C266.835 744.459 257.543 753.751 257.543 765.213C257.543 776.675 266.835 785.967 278.297 785.967Z" fill="white"/>
<path d="M347.869 788.133C360.528 788.133 370.789 777.871 370.789 765.213C370.789 752.555 360.528 742.293 347.869 742.293C335.211 742.293 324.949 752.555 324.949 765.213C324.949 777.871 335.211 788.133 347.869 788.133Z" fill="white"/>
<path d="M417.349 790.276C431.192 790.276 442.413 779.055 442.413 765.212C442.413 751.37 431.192 740.148 417.349 740.148C403.507 740.148 392.285 751.37 392.285 765.212C392.285 779.055 403.507 790.276 417.349 790.276Z" fill="white"/>
<path d="M486.917 792.44C501.954 792.44 514.143 780.251 514.143 765.214C514.143 750.178 501.954 737.988 486.917 737.988C471.881 737.988 459.691 750.178 459.691 765.214C459.691 780.251 471.881 792.44 486.917 792.44Z" fill="white"/>
<path d="M556.494 790.469C570.443 790.469 581.75 779.162 581.75 765.213C581.75 751.265 570.443 739.957 556.494 739.957C542.546 739.957 531.238 751.265 531.238 765.213C531.238 779.162 542.546 790.469 556.494 790.469Z" fill="white"/>
<path d="M626.067 788.385C638.864 788.385 649.239 778.011 649.239 765.213C649.239 752.415 638.864 742.041 626.067 742.041C613.269 742.041 602.895 752.415 602.895 765.213C602.895 778.011 613.269 788.385 626.067 788.385Z" fill="white"/>
<path d="M695.642 786.184C707.223 786.184 716.612 776.796 716.612 765.214C716.612 753.633 707.223 744.244 695.642 744.244C684.06 744.244 674.672 753.633 674.672 765.214C674.672 776.796 684.06 786.184 695.642 786.184Z" fill="white"/>
<path d="M765.217 784.041C775.614 784.041 784.043 775.612 784.043 765.215C784.043 754.817 775.614 746.389 765.217 746.389C754.819 746.389 746.391 754.817 746.391 765.215C746.391 775.612 754.819 784.041 765.217 784.041Z" fill="white"/>
</g>
</svg>
