<svg width="800" height="794" viewBox="0 0 800 794" fill="none" xmlns="http://www.w3.org/2000/svg">
  <defs>
    <filter id="light-blur">
      <feGaussianBlur stdDeviation="70"/>
    </filter>
    <filter id="light-grain">
      <feTurbulence type="fractalNoise" baseFrequency="5" numOctaves="3" stitchTiles="stitch" result="noise"/>
      <feBlend in="SourceGraphic" in2="noise" mode="overlay"/>
    </filter>


    <path id="star-p1" d="M341.336 254.046C333.306 257.039 325.241 260.145 317.164 263.39C112.148 345.756 -27.7586 478.022 4.67011 558.817C37.0998 639.613 229.586 638.342 434.602 555.976C442.728 552.711 450.749 549.355 458.664 545.94C262.894 618.921 84.0489 617.049 52.8969 539.437C21.7549 461.844 149.566 336.793 341.336 254.046Z" />
    <path id="star-p2" d="M795.33 241.164C762.9 160.37 570.411 161.64 365.394 244.006C357.268 247.27 349.251 250.63 341.336 254.046C537.106 181.065 715.947 182.933 747.099 260.545C778.244 338.137 650.436 463.193 458.664 545.94C466.694 542.947 474.755 539.837 482.833 536.592C687.849 454.226 827.759 321.96 795.33 241.164Z" />
    <path id="star-p3" d="M416.34 303.603C418.745 340.899 436.565 370.365 459.052 374.165L594.07 397L459.052 419.835C436.565 423.635 418.745 453.101 416.34 490.397L396.794 794L377.252 490.397C374.847 453.101 357.028 423.635 334.54 419.835L199.522 397L334.54 374.165C357.028 370.365 374.847 340.899 377.252 303.603L396.794 0L416.34 303.603Z" />

    <clipPath id="star-clip">
       <use href="#star-p1"/>
       <use href="#star-p2"/>
       <use href="#star-p3"/>
    </clipPath>
  </defs>

    <!-- Main content masked by star shape -->
    <g clip-path="url(#star-clip)">
        <g filter="url(#light-grain)">
            <!-- Lighter base for white background -->
            <rect width="800" height="794" fill="#F5F5FA"/>

            <g filter="url(#light-blur)" transform="scale(1.2)">
                <!-- Light/Day holographic colors -->
                <!-- Cyan/Sky -->
                <ellipse cx="100" cy="200" rx="300" ry="300" fill="#B3E5FC" opacity="0.9"/>
                <!-- Lavender -->
                <ellipse cx="700" cy="600" rx="300" ry="300" fill="#D1C4E9" opacity="0.9"/>
                <!-- Soft Pink -->
                <ellipse cx="400" cy="400" rx="250" ry="250" fill="#F8BBD0" opacity="0.8"/>
                <!-- Mint -->
                <ellipse cx="700" cy="100" rx="200" ry="200" fill="#C8E6C9" opacity="0.8"/>
                <!-- Peach -->
                <ellipse cx="100" cy="600" rx="200" ry="200" fill="#FFE0B2" opacity="0.8"/>
            </g>
        </g>
    </g>
</svg>
