<svg width="800" height="794" viewBox="0 0 800 794" fill="none" xmlns="http://www.w3.org/2000/svg">
<path d="M341.336 254.046C333.306 257.039 325.241 260.145 317.164 263.39C112.148 345.756 -27.7586 478.022 4.67011 558.817C37.0998 639.613 229.586 638.342 434.602 555.976C442.728 552.711 450.749 549.355 458.664 545.94C262.894 618.921 84.0489 617.049 52.8969 539.437C21.7549 461.844 149.566 336.792 341.336 254.046Z" fill="white"/>
<path d="M795.33 241.164C762.9 160.37 570.411 161.64 365.394 244.006C357.268 247.27 349.251 250.63 341.336 254.046C537.106 181.065 715.947 182.933 747.099 260.545C778.244 338.137 650.436 463.193 458.664 545.94C466.694 542.947 474.755 539.837 482.833 536.592C687.849 454.226 827.759 321.96 795.33 241.164Z" fill="white"/>
<path d="M416.34 303.603C418.745 340.899 436.565 370.365 459.052 374.165L594.07 397L459.052 419.835C436.565 423.635 418.745 453.101 416.34 490.397L396.794 794L377.252 490.397C374.847 453.101 357.028 423.635 334.54 419.835L199.522 397L334.54 374.165C357.028 370.365 374.847 340.899 377.252 303.603L396.794 0L416.34 303.603Z" fill="white"/>
</svg>
