<svg width="20" height="20" viewBox="0 0 20 20" fill="none" xmlns="http://www.w3.org/2000/svg">
<g clip-path="url(#clip0_23_2819)">
<path d="M6.66663 6.66667V4.33334C6.66663 3.39992 6.66663 2.93321 6.84828 2.57669C7.00807 2.26308 7.26304 2.00812 7.57664 1.84833C7.93316 1.66667 8.39987 1.66667 9.33329 1.66667H15.6666C16.6 1.66667 17.0668 1.66667 17.4233 1.84833C17.7369 2.00812 17.9918 2.26308 18.1516 2.57669C18.3333 2.93321 18.3333 3.39992 18.3333 4.33334V10.6667C18.3333 11.6001 18.3333 12.0668 18.1516 12.4233C17.9918 12.7369 17.7369 12.9919 17.4233 13.1517C17.0668 13.3333 16.6 13.3333 15.6666 13.3333H13.3333M4.33329 18.3333H10.6666C11.6 18.3333 12.0668 18.3333 12.4233 18.1517C12.7369 17.9919 12.9918 17.7369 13.1516 17.4233C13.3333 17.0668 13.3333 16.6001 13.3333 15.6667V9.33334C13.3333 8.39992 13.3333 7.93321 13.1516 7.57669C12.9918 7.26308 12.7369 7.00812 12.4233 6.84833C12.0668 6.66667 11.6 6.66667 10.6666 6.66667H4.33329C3.39987 6.66667 2.93316 6.66667 2.57664 6.84833C2.26304 7.00812 2.00807 7.26308 1.84828 7.57669C1.66663 7.93321 1.66663 8.39992 1.66663 9.33334V15.6667C1.66663 16.6001 1.66663 17.0668 1.84828 17.4233C2.00807 17.7369 2.26304 17.9919 2.57664 18.1517C2.93316 18.3333 3.39987 18.3333 4.33329 18.3333Z" stroke="currentColor" stroke-width="1.66667" stroke-linecap="round" stroke-linejoin="round"/>
</g>
<defs>
<clipPath id="clip0_23_2819">
<rect width="20" height="20" fill="white"/>
</clipPath>
</defs>
</svg>
