<?xml version="1.0" encoding="utf-8"?><svg xmlns="http://www.w3.org/2000/svg" xmlns:xlink="http://www.w3.org/1999/xlink"><symbol fill="none" viewBox="0 0 28 28" id="check" xmlns="http://www.w3.org/2000/svg"><rect width="28" height="28" rx="14" fill="#D1FADF"/><path fill-rule="evenodd" clip-rule="evenodd" d="m19.946 8.622-8.354 8.061-2.216-2.368c-.409-.385-1.05-.408-1.517-.082-.455.339-.583.934-.303 1.412l2.625 4.27c.256.397.7.642 1.201.642.479 0 .934-.245 1.19-.642.42-.548 8.435-10.103 8.435-10.103 1.05-1.074-.221-2.019-1.061-1.202v.012Z" fill="#12B76A"/></symbol><symbol fill="none" viewBox="0 0 20 20" id="copy" xmlns="http://www.w3.org/2000/svg"><g clip-path="url(#ba)"><path d="M6.667 6.667V4.333c0-.933 0-1.4.181-1.756.16-.314.415-.569.729-.729.356-.181.823-.181 1.756-.181h6.334c.933 0 1.4 0 1.756.181.314.16.569.415.729.729.181.356.181.823.181 1.756v6.334c0 .933 0 1.4-.181 1.756-.16.314-.415.569-.729.729-.356.181-.823.181-1.756.181h-2.334m-9 5h6.334c.933 0 1.4 0 1.756-.181.314-.16.569-.415.729-.729.181-.356.181-.823.181-1.756V9.333c0-.933 0-1.4-.181-1.756a1.667 1.667 0 0 0-.729-.729c-.356-.181-.823-.181-1.756-.181H4.333c-.933 0-1.4 0-1.756.181-.314.16-.569.415-.729.729-.181.356-.181.823-.181 1.756v6.334c0 .933 0 1.4.181 1.756.16.314.415.569.729.729.356.181.823.181 1.756.181Z" stroke="currentColor" stroke-width="1.667" stroke-linecap="round" stroke-linejoin="round"/></g><defs><clipPath id="ba"><path fill="#fff" d="M0 0h20v20H0z"/></clipPath></defs></symbol><symbol fill="none" viewBox="0 0 24 24" id="flower" xmlns="http://www.w3.org/2000/svg"><path d="M12 2v4m0 12v4M6 12H2m20 0h-4m1.078 7.078L16.25 16.25M19.078 5 16.25 7.828M4.922 19.078 7.75 16.25M4.922 5 7.75 7.828" stroke="currentColor" stroke-width="2" stroke-linecap="round" stroke-linejoin="round"/></symbol><symbol fill="none" viewBox="0 0 20 20" id="home" xmlns="http://www.w3.org/2000/svg"><path d="M7.5 17.5v-6.167c0-.466 0-.7.09-.878a.833.833 0 0 1 .365-.364c.178-.09.412-.09.878-.09h2.334c.466 0 .7 0 .878.09.157.08.284.207.364.364.091.178.091.412.091.878V17.5M9.181 2.303 3.53 6.7c-.377.294-.566.441-.702.625-.12.163-.21.347-.265.542-.062.22-.062.46-.062.938v6.03c0 .933 0 1.4.182 1.756.16.314.414.569.728.729.357.181.823.181 1.757.181h9.666c.934 0 1.4 0 1.757-.181.314-.16.569-.415.728-.729.182-.356.182-.823.182-1.757V8.804c0-.478 0-.718-.062-.938a1.665 1.665 0 0 0-.265-.542c-.136-.184-.325-.33-.702-.625l-5.652-4.396c-.293-.227-.44-.341-.601-.385a.834.834 0 0 0-.436 0c-.161.044-.308.158-.6.385Z" stroke="currentColor" stroke-width="1.667" stroke-linecap="round" stroke-linejoin="round"/></symbol><symbol fill="none" viewBox="0 0 24 24" id="plus" xmlns="http://www.w3.org/2000/svg"><path d="M12 5v14m-7-7h14" stroke="currentColor" stroke-width="2" stroke-linecap="round" stroke-linejoin="round"/></symbol><symbol fill="none" viewBox="0 0 24 24" id="retry" xmlns="http://www.w3.org/2000/svg"><path d="m13 22-3-3m0 0 3-3m-3 3h5a7 7 0 0 0 3-13.326M6 18.326A7 7 0 0 1 9 5h5m0 0-3-3m3 3-3 3" stroke="currentColor" stroke-width="2" stroke-linecap="round" stroke-linejoin="round"/></symbol><symbol fill="none" viewBox="0 0 20 20" id="trash" xmlns="http://www.w3.org/2000/svg"><path d="M13.333 5v-.667c0-.933 0-1.4-.181-1.756a1.667 1.667 0 0 0-.729-.729c-.356-.181-.823-.181-1.756-.181H9.333c-.933 0-1.4 0-1.756.181-.314.16-.569.415-.729.729-.181.356-.181.823-.181 1.756V5m1.666 4.583v4.167m3.334-4.167v4.167M2.5 5h15m-1.667 0v9.333c0 1.4 0 2.1-.272 2.635a2.5 2.5 0 0 1-1.093 1.093c-.534.272-1.235.272-2.635.272H8.167c-1.4 0-2.1 0-2.635-.272a2.5 2.5 0 0 1-1.093-1.093c-.272-.535-.272-1.235-.272-2.635V5" stroke="currentColor" stroke-width="1.667" stroke-linecap="round" stroke-linejoin="round"/></symbol></svg>